<?xml version="1.0" encoding="UTF-8" standalone="no"?>
<!-- Created with Inkscape (http://www.inkscape.org/) -->

<svg
   version="1.1"
   id="svg1"
   width="318.67999"
   height="60.893333"
   viewBox="0 0 318.67999 60.893333"
   sodipodi:docname="Sanskrit_typing_in_Overleaf-1.pdf"
   xmlns:inkscape="http://www.inkscape.org/namespaces/inkscape"
   xmlns:sodipodi="http://sodipodi.sourceforge.net/DTD/sodipodi-0.dtd"
   xmlns="http://www.w3.org/2000/svg"
   xmlns:svg="http://www.w3.org/2000/svg">
  <defs
     id="defs1" />
  <sodipodi:namedview
     id="namedview1"
     pagecolor="#ffffff"
     bordercolor="#000000"
     borderopacity="0.25"
     inkscape:showpageshadow="2"
     inkscape:pageopacity="0.0"
     inkscape:pagecheckerboard="0"
     inkscape:deskcolor="#d1d1d1">
    <inkscape:page
       x="0"
       y="0"
       inkscape:label="1"
       id="page1"
       width="318.67999"
       height="60.893333"
       margin="0"
       bleed="0" />
  </sodipodi:namedview>
  <g
     id="g1"
     inkscape:groupmode="layer"
     inkscape:label="1">
    <g
       id="g2"
       aria-label="l+.ea;kH.sa;ma;~Ta;aH.sua;a;Ka;na;eaBa;va;ntuaÃÃ&#10;lokah&#10;.&#10;samasthÂ¯ah&#10;.&#10;sukhinobhavantu||"
       transform="matrix(1.3333333,0,0,1.3333333,38.838667,16.593333)">
      <path
         id="path2"
         d="m -0.52646094,-8.835625 c 0.3515625,0.3632812 0.703125,0.7265625 1.078125,1.0664063 1.42968754,0.035156 2.96484374,0 4.42968754,0.011719 v 1.6640625 c -0.5742188,0 -1.1367188,0.3164063 -1.4765625,0.65625 -0.046875,0.046875 -0.09375,0.1289063 -0.1640625,0.1171875 -0.070312,0 -0.1523438,-0.1054687 -0.2109375,-0.140625 C 2.9891641,-5.5778125 2.8251016,-5.695 2.6493203,-5.78875 2.0633828,-6.1285937 1.3602578,-6.210625 0.72744531,-5.9059375 c -0.3984375,0.1875 -0.73828125,0.4804688 -0.97265625,0.8554688 -0.5625,0.9492187 -0.2578125,2.1445312 0.19921875,3.0585937 0.57421875,1.04296875 1.33593749,1.88671875 2.14453129,2.6953125 h 0.011719 L 2.3094766,0.50421875 C 2.3446328,0.4690625 2.3915078,0.43390625 2.4149453,0.38703125 2.4266641,0.305 2.3094766,0.21125 2.2626016,0.17609375 1.5594766,-0.52703125 0.80947656,-1.4176563 0.59853906,-2.4957813 0.57510156,-2.695 0.55166406,-2.9059375 0.56338281,-3.1285938 0.63369531,-3.960625 1.1961953,-4.66375 1.9930703,-4.9098437 c 0.3984375,-0.1054688 0.7851563,-0.082031 1.1015625,0.082031 -0.082031,0.1640625 -0.140625,0.3632813 -0.1640625,0.5507813 -0.035156,0.1757812 -0.023437,0.2812499 0.082031,0.3749999 0,0 0.703125,0.703125 0.65625,0.65625 0.1054687,0.1054688 0.1992187,0.2226563 0.3164062,0.3046875 0.046875,-0.2109375 0.046875,-0.4335937 0.1054688,-0.6445312 0.2578125,-0.8203125 1.1835937,-1.59375 2.296875,-1.359375 0.140625,0.035156 0.3164062,0.082031 0.4101562,0.1992188 C 7.0672888,-4.4996877 7.05557,-3.9020315 7.0204138,-3.409844 6.9383828,-2.7418752 6.727445,-2.0739065 6.39932,-1.487969 6.2235391,-1.195 6.0008828,-0.91375 5.7899453,-0.6559375 c -0.1523437,0.15234375 0.035156,0.2578125 0.1171875,0.33984375 l 0.5859375,0.5859375 C 6.5516641,0.3284375 6.6688516,0.4925 6.7626016,0.4690625 6.8680703,0.43390625 6.9266641,0.305 7.0204141,0.21125 7.2196328,-0.0465625 7.4071328,-0.31609375 7.5594766,-0.59734375 7.8876016,-1.2301563 8.0868203,-1.945 8.1336953,-2.6715625 8.1454141,-2.9879688 8.1454141,-3.2809375 8.0751016,-3.585625 7.9930703,-3.9723438 7.8055703,-4.3121875 7.5711953,-4.6285937 7.2313516,-5.0973437 6.7977578,-5.4840625 6.2704141,-5.7770312 c -0.058594,-0.035156 -0.140625,-0.058594 -0.1757813,-0.1171875 -0.023437,-0.058594 -0.011719,-0.1289063 -0.011719,-0.1875 V -7.7575 c 1.0195312,0 2.0742187,0.035156 3.0703125,-0.011719 -0.070312,-0.1171875 -0.1875,-0.2226563 -0.2929688,-0.3164063 L 8.3797891,-8.5778125 c -0.09375,-0.082031 -0.1992188,-0.2460938 -0.328125,-0.28125 -0.070312,-0.023437 -0.1640625,0 -0.234375,0 h -8.05078129 c -0.09375,0 -0.19921875,-0.023437 -0.29296875,0.023437 z m 8.29101564,0.011719 c 0.3398437,0.3515625 0.6796875,0.703125 1.0546875,1.0312501 l 0.28125,0.035156 c 0.9374998,0 1.9218748,0.035156 2.8242188,-0.011719 l -0.703125,-0.7265626 c -0.117188,-0.1054687 -0.234375,-0.234375 -0.375,-0.3398437 -0.84375,-0.082031 -1.8984376,0 -2.8007813,-0.023437 -0.058594,0.035156 -0.2578125,-0.035156 -0.28125,0.035156 z m 2.7685543,0 c 0.339844,0.3515625 0.679688,0.703125 1.054688,1.0312501 0.316406,0.046875 0.691406,0.023437 1.03125,0.023437 l -0.703125,-0.7265626 c -0.105469,-0.1054687 -0.222656,-0.234375 -0.363281,-0.3398437 -0.234375,-0.023437 -0.480469,-0.023437 -0.738282,-0.023437 -0.05859,0.035156 -0.257812,-0.035156 -0.28125,0.035156 z M 7.4364297,-11.22625 c 0.28125,-0.386719 0.9375,-0.773438 1.6289062,-0.644531 0.1992188,0.03516 0.421875,0.09375 0.5625,0.234375 0.140625,0.164062 0.2695313,0.351562 0.3750001,0.539062 0.421875,0.679688 0.738281,1.417969 1.171875,2.0859377 0.04687,0.070312 0.04687,0.1640625 0.105469,0.234375 0.105468,0.1523438 0.269531,0.28125 0.410156,0.4335938 0.1875,0.1875 0.375,0.3984375 0.585937,0.5742188 0.1875,-0.3632813 -0.05859,-0.6796876 -0.257812,-0.9609376 -0.960938,-1.5585937 -1.628906,-3.6093747 -3.5156251,-4.1953127 -0.5507812,-0.175781 -1.1953125,-0.117187 -1.6875,0.222656 -0.1171875,0.08203 -0.2109375,0.164063 -0.3164062,0.269532 -0.023437,0.03516 -0.082031,0.08203 -0.082031,0.140625 0,0.04687 0.035156,0.08203 0.070312,0.117187 0,0 1.0195313,1.019531 0.949219,0.949219 z M 12.264555,0.5159375 c 0.07031,-0.046875 0,-0.234375 0.04687,-0.3046875 V -7.7575 c 0.785156,0 1.617187,0.023437 2.378906,-0.011719 -0.269526,-0.363281 -0.632808,-0.644531 -0.949214,-0.9609373 -0.08203,-0.09375 -0.175781,-0.1289062 -0.316406,-0.1289062 h -1.945313 c -0.07031,0 -0.199218,-0.035156 -0.246093,0.035156 -0.04687,0.058594 -0.03516,0.1640625 -0.03516,0.2226563 v 7.8515625 c 0,0.0585938 -0.01172,0.12890625 0.02344,0.1875 0.05859,0.12890625 0.210937,0.24609375 0.316406,0.3515625 z m 1.037109,-9.3515625 c 0.339844,0.3398437 0.679688,0.7148437 1.054688,1.0429688 l 0.234375,0.035156 c 0.726562,0 1.476562,0.011719 2.179687,-0.011719 -0.199219,-0.2578126 -0.46875,-0.4921876 -0.703125,-0.7265626 L 15.832914,-8.718438 c -0.105469,-0.1171875 -0.199219,-0.140625 -0.351562,-0.140625 h -1.605469 c -0.175781,0 -0.410156,-0.046875 -0.574219,0.023437 z m 2.080078,0 c 0.351563,0.3632812 0.703125,0.7265625 1.078125,1.0664063 0.972656,0.035156 2.050781,0 3.046875,0.011719 v 2.3671875 C 19.049711,-5.8473437 18.463773,-6.3395312 17.690336,-6.445 c -0.925781,-0.082031 -1.980469,0.4335938 -2.25,1.3476563 -0.05859,0.1875 -0.08203,0.375 -0.08203,0.5625 0.02344,0.5624999 0.339843,1.0781249 0.691406,1.4765624 0.691406,0.796875 1.769531,1.3476563 2.847656,1.1367188 0.210938,-0.046875 0.410156,-0.1289063 0.609375,-0.234375 v 1.1132812 c 0,0.16406255 0,0.3398438 0.01172,0.4804688 0.339844,0.375 0.691406,0.71484375 1.054687,1.078125 C 20.60831,0.39875 20.60831,0.258125 20.60831,0.17609375 V -2.7535938 c 0,-0.1054687 -0.01172,-0.1992187 0,-0.28125 0.02344,-0.1054687 0.117187,-0.1757812 0.175781,-0.2460937 0.128906,-0.1640625 0.269531,-0.3046875 0.398437,-0.4570313 0.550782,-0.6093749 1.171875,-1.1835937 2.015625,-1.2539062 0.140625,-0.011719 0.269532,0.023437 0.410157,0.046875 0.02344,0.1289063 0.04687,0.2578125 0.04687,0.3867188 0,0.6445312 -0.269532,1.2304687 -0.550782,1.6874999 -0.02344,0.070312 -0.105468,0.1757813 -0.09375,0.2460938 0,0.046875 0.04687,0.082031 0.07031,0.1171875 0,0 0.703125,0.703125 0.65625,0.65625 0.105469,0.1054687 0.1875,0.1992187 0.304687,0.2929687 0.398438,-0.6328125 0.855469,-1.6289062 0.679688,-2.4960937 -0.08203,-0.4101562 -0.304688,-0.7734375 -0.574219,-1.078125 -0.363281,-0.421875 -0.855469,-0.8085937 -1.40625,-0.9257812 -0.984375,-0.2226563 -1.605469,0.3398437 -2.132812,0.75 V -7.7575 h 2.988281 c 0.492187,0 0.996094,0 1.464844,-0.011719 -0.07031,-0.1171875 -0.1875,-0.2226563 -0.292969,-0.3164063 l -0.480469,-0.4921875 c -0.09375,-0.082031 -0.199219,-0.2460938 -0.328125,-0.28125 -0.07031,-0.023437 -0.152344,0 -0.222656,0 h -8.0625 c -0.09375,0 -0.199219,-0.023437 -0.292969,0.023437 z m 4.101563,4.734375 c -0.03516,0.070312 -0.09375,0.1171875 -0.140625,0.1757812 -0.46875,0.4570313 -1.078125,0.9375 -1.828125,0.9375 -0.222657,0 -0.457032,-0.035156 -0.667969,-0.1054687 -0.09375,-0.035156 -0.1875,-0.058594 -0.246094,-0.1289063 -0.07031,-0.082031 -0.105469,-0.1875 -0.117187,-0.2929687 -0.04687,-0.2578125 0,-0.5273437 0.117187,-0.7734375 0.269531,-0.5625 0.84375,-0.9023437 1.429688,-1.0078125 0.1875,-0.023437 0.375,-0.058594 0.5625,-0.023437 0.304687,0.046875 0.503906,0.1992188 0.703125,0.3984375 0.07031,0.070312 0.152343,0.140625 0.199218,0.234375 0.02344,0.082031 0.01172,0.2109375 0.01172,0.2929688 0,0.09375 0.01172,0.2109375 -0.02344,0.2929687 z m 8.504882,-2.4960937 -1.042968,1.0429687 v 0.023437 l 1.042968,1.0429688 h 0.01172 l 1.054688,-1.0429688 v -0.023437 z m 0,3.4570312 -1.042968,1.0429687 v 0.023437 l 1.042968,1.0429688 h 0.01172 l 1.054688,-1.0429688 v -0.023437 z m 9.158204,-5.6835938 c 0.339843,0.3515625 0.679687,0.703125 1.054687,1.0312501 0.316406,0.046875 0.691406,0.023437 1.03125,0.023437 l -0.703125,-0.7265626 c -0.105469,-0.1054687 -0.222656,-0.234375 -0.363281,-0.3398437 -0.234375,-0.023437 -0.480469,-0.023437 -0.738281,-0.023437 -0.05859,0.035156 -0.257813,-0.035156 -0.28125,0.035156 z m 0.688476,-0.011719 c 0.351563,0.3632812 0.703125,0.7265625 1.078125,1.0664063 0.304688,0.011719 0.644531,0.011719 0.972656,0.011719 0,1.1601563 0.02344,2.3554688 -0.01172,3.4804688 -0.117188,-0.1171875 -0.210938,-0.2578125 -0.304688,-0.375 -0.292969,-0.3398438 -0.644531,-0.7265625 -1.078125,-0.8554688 -0.457031,-0.1523437 -0.820312,0.1523438 -0.832031,0.515625 -0.01172,0.2460938 0.105469,0.46875 0.246094,0.65625 0.175781,0.2578125 0.410156,0.4804687 0.644531,0.703125 l 0.914062,0.9492187 c 0.07031,0.070312 3.1875,3.3632813 3.210938,3.3867188 h 0.02344 l 0.328125,-0.328125 V 0.36359375 L 40.143461,-2.6832813 c 0.222656,-0.058594 0.445312,-0.1289062 0.632812,-0.2226562 h 2.144532 c 0.949218,0 1.957031,0.023437 2.871093,-0.023437 l -0.269531,-0.2929688 c -0.257812,-0.2578125 -0.539062,-0.5390625 -0.808594,-0.7734375 -1.207031,-0.046875 -2.496093,0 -3.726562,-0.023437 V -7.7575 h 3.46875 c 0.5625,0 1.136719,0 1.675781,-0.011719 -0.08203,-0.1171875 -0.1875,-0.2109375 -0.28125,-0.3046876 L 45.381742,-8.554375 C 45.21768,-8.7067188 45.159086,-8.8590625 44.84268,-8.8590625 h -6.75 c -0.09375,0 -0.175782,0 -0.257813,0.023437 z m 1.242188,4.40625 c 0.04687,0.1289063 0.09375,0.2578125 0.105468,0.3867188 0.01172,0.070312 0.01172,0.1406249 -0.04687,0.1874999 -0.09375,0.070312 -0.222656,-0.09375 -0.28125,-0.1640624 -0.03516,-0.023437 -0.05859,-0.058594 -0.05859,-0.09375 -0.02344,-0.1523438 0.164062,-0.2578125 0.28125,-0.3164063 z m 6.714843,4.9453125 c 0.07031,-0.046875 0,-0.234375 0.04687,-0.3046875 V -7.7575 c 0.785157,0 1.617188,0.023437 2.378907,-0.011719 -0.269527,-0.363281 -0.632808,-0.644531 -0.949214,-0.9609373 -0.08203,-0.09375 -0.175781,-0.1289062 -0.316406,-0.1289062 h -1.945313 c -0.07031,0 -0.199219,-0.035156 -0.246094,0.035156 -0.04687,0.058594 -0.03516,0.1640625 -0.03516,0.2226563 v 7.8515625 c 0,0.0585938 -0.01172,0.12890625 0.02344,0.1875 0.05859,0.12890625 0.210937,0.24609375 0.316406,0.3515625 z m 1.03711,-9.3515625 c 0.339844,0.3398437 0.679687,0.7148437 1.054687,1.0429688 L 48.11807,-7.7575 c 0.726563,0 1.476563,0.011719 2.179688,-0.011719 -0.199219,-0.2578126 -0.46875,-0.4921876 -0.703125,-0.7265626 l -0.234375,-0.2226562 c -0.105469,-0.1171875 -0.199219,-0.140625 -0.351563,-0.140625 h -1.605468 c -0.175782,0 -0.410157,-0.046875 -0.574219,0.023437 z m 2.080078,0 c 0.351562,0.3632812 0.703125,0.7265625 1.078125,1.0664063 0.304687,0.011719 0.644531,0.011719 0.972656,0.011719 v 3.7382813 h -0.972656 c -0.1875,0 -0.398438,-0.023437 -0.5625,0.035156 -0.07031,0.023437 -0.140625,0.070312 -0.199219,0.1171875 -0.410156,0.2695312 -0.386719,0.8320312 -0.222656,1.2421875 0.1875,0.3984375 0.492187,0.75 0.832031,1.0195312 0.222656,0.1523438 0.457031,0.3046875 0.738281,0.375 0.46875,0.1171875 0.996094,0.011719 1.289063,-0.4101562 0.246094,-0.28125 0.199219,-0.8320313 0.199219,-1.265625 h 3.222656 c 0.539062,0 1.066406,0 1.582031,-0.023437 L 56.596586,-3.2223435 C 56.338773,-3.480156 56.057523,-3.761406 55.787992,-3.995781 c -1.207031,-0.046875 -2.496094,0 -3.726562,-0.023437 V -7.7575 h 3.46875 c 0.5625,0 1.136718,0 1.675781,-0.011719 -0.08203,-0.1171875 -0.1875,-0.2109375 -0.28125,-0.3046876 l -0.46875,-0.4804687 c -0.164063,-0.1523438 -0.222656,-0.3046875 -0.539063,-0.3046875 h -6.75 c -0.09375,0 -0.175781,0 -0.257812,0.023437 z m 1.089844,6.5390625 c 0,-0.1289063 0.05859,-0.2695313 0.117187,-0.3515625 0.199219,-0.28125 0.492188,-0.2578125 0.796875,-0.2578125 -0.05859,0.1054687 -0.09375,0.2109375 -0.1875,0.3046875 -0.1875,0.2109375 -0.457031,0.2929687 -0.726562,0.3046875 z m 6.867187,2.8125 c 0.07031,-0.046875 0,-0.234375 0.04687,-0.3046875 V -7.7575 c 0.785156,0 1.617188,0.023437 2.378906,-0.011719 -0.269526,-0.363281 -0.632807,-0.644531 -0.949213,-0.9609373 -0.08203,-0.09375 -0.175782,-0.1289062 -0.316407,-0.1289062 h -1.945312 c -0.07031,0 -0.199219,-0.035156 -0.246094,0.035156 -0.04687,0.058594 -0.03516,0.1640625 -0.03516,0.2226563 v 7.8515625 c 0,0.0585938 -0.01172,0.12890625 0.02344,0.1875 0.05859,0.12890625 0.210938,0.24609375 0.316407,0.3515625 z m 1.040039,-9.3515625 c 0.339844,0.3398437 0.679688,0.7148437 1.054688,1.0429688 l 0.234375,0.035156 c 0.726562,0 1.476562,0.011719 2.179687,-0.011719 -0.199219,-0.2578126 -0.46875,-0.4921876 -0.703125,-0.7265626 l -0.234375,-0.2226562 c -0.105469,-0.1171875 -0.199219,-0.140625 -0.351562,-0.140625 h -1.605469 c -0.175781,0 -0.410156,-0.046875 -0.574219,0.023437 z m 2.080078,0 c 0.351563,0.3632812 0.703125,0.7265625 1.078125,1.0664063 0.304688,0.011719 0.644532,0.011719 0.972657,0.011719 0,1.1601563 0.02344,2.3554688 -0.01172,3.4804688 -0.117188,-0.1171875 -0.210938,-0.2578125 -0.304688,-0.375 C 61.42764,-4.991875 61.076077,-5.3785937 60.642483,-5.5075 c -0.457031,-0.1523437 -0.820312,0.1523438 -0.832031,0.515625 -0.01172,0.2460938 0.105469,0.46875 0.246094,0.65625 0.175781,0.2578125 0.410156,0.4804687 0.644531,0.703125 l 0.914063,0.9492187 c 0.07031,0.070312 3.1875,3.3632813 3.210937,3.3867188 h 0.02344 l 0.328125,-0.328125 V 0.36359375 L 62.294828,-2.6832813 c 0.480469,-0.023437 0.855469,-0.375 0.855469,-0.9257812 1.359375,0 2.765625,0.035156 4.101562,-0.023437 l -0.726562,-0.7382812 c -0.117188,-0.1171875 -0.234375,-0.234375 -0.363281,-0.328125 -0.960938,-0.046875 -2.015625,0 -3.023438,-0.023437 V -7.7575 h 3 c 0.480469,0 0.984375,0 1.464844,-0.011719 -0.222656,-0.2812501 -0.492188,-0.5039063 -0.738281,-0.7500001 -0.117188,-0.1171875 -0.210938,-0.2578125 -0.351563,-0.328125 -0.05859,-0.035156 -0.128906,-0.011719 -0.1875,-0.011719 h -5.859375 c -0.152344,0 -0.339844,-0.035156 -0.480469,0.023438 z m 1.242188,4.40625 c 0.04687,0.1289063 0.09375,0.2578125 0.105469,0.3867188 0.01172,0.070312 0.01172,0.1406249 -0.04687,0.1874999 -0.09375,0.070312 -0.222657,-0.09375 -0.28125,-0.1640624 -0.03516,-0.023437 -0.05859,-0.058594 -0.05859,-0.09375 -0.02344,-0.1523438 0.164062,-0.2578125 0.28125,-0.3164063 z m 6.342773,-0.6914062 c -0.304687,0.1992187 -0.621093,0.3398437 -0.972656,0.3867187 -0.09375,0.011719 -0.175781,0.011719 -0.257812,0.035156 -0.199219,0 -0.152344,0.140625 -0.117188,0.2226562 0.04687,0.1289063 0.128906,0.2460938 0.210938,0.3398438 0.128906,0.1640624 0.292968,0.3046874 0.445312,0.4453124 0.761719,0.6679688 1.640625,1.3710938 2.894531,1.4648438 1.183594,0.070312 2.214844,-0.5976563 3.023438,-1.40625 v -0.011719 L 71.74307,-4.6871875 c -0.691406,0.6914062 -1.652343,1.3828125 -2.765625,1.359375 -0.457031,0 -0.855468,-0.1523438 -1.171875,-0.328125 0.738282,-0.2109375 1.371094,-0.7382812 1.570313,-1.453125 0.433594,-1.171875 -0.199219,-2.3085937 -1.03125,-3.0234375 -0.398438,-0.3632813 -0.878906,-0.6328125 -1.40625,-0.7148438 -0.199219,-0.011719 -0.410156,-0.046875 -0.597656,0.023437 -0.5625,0.1875 -0.632813,0.8789063 -0.539063,1.3828126 0.128906,0.6796875 0.597656,1.2773437 1.078125,1.7578125 0.199219,0.1992187 0.433594,0.421875 0.691406,0.5625002 z m 2.097657,-3.7148438 c 0.339843,0.3398437 0.679687,0.7148437 1.054687,1.0429688 l 0.234375,0.035156 c 0.726563,0 1.476563,0.011719 2.179688,-0.011719 -0.199219,-0.2578126 -0.46875,-0.4921876 -0.703125,-0.7265626 l -0.234375,-0.2226562 c -0.105469,-0.1171875 -0.199219,-0.140625 -0.351563,-0.140625 H 70.24307 c -0.175781,0 -0.410156,-0.046875 -0.574218,0.023437 z m -1.78125,3.4453125 h -0.03516 c -0.09375,-0.1757812 -0.234375,-0.328125 -0.398437,-0.4570312 -0.09375,-0.082031 -0.199219,-0.1523438 -0.28125,-0.234375 -0.234375,-0.2695313 -0.433594,-0.890625 -0.1875,-1.3359375 0.1875,-0.328125 0.527344,-0.3867188 0.867187,-0.3164063 0.105469,0.035156 0.234375,0.058594 0.316407,0.1289063 0.128906,0.1171875 0.175781,0.3632812 0.210937,0.515625 0.07031,0.421875 0,0.8789062 -0.210937,1.2539062 -0.08203,0.1523438 -0.199219,0.28125 -0.28125,0.4453125 z m 4.889648,5.90625 c 0.07031,-0.046875 0,-0.234375 0.04687,-0.3046875 V -7.7575 c 0.785156,0 1.617187,0.023437 2.378906,-0.011719 C 74.9335,-8.1325 74.570219,-8.41375 74.253812,-8.7301563 c -0.08203,-0.09375 -0.175781,-0.1289062 -0.316406,-0.1289062 h -1.945312 c -0.07031,0 -0.199219,-0.035156 -0.246094,0.035156 -0.04687,0.058594 -0.03516,0.1640625 -0.03516,0.2226563 v 7.8515625 c 0,0.0585938 -0.01172,0.12890625 0.02344,0.1875 0.05859,0.12890625 0.210938,0.24609375 0.316406,0.3515625 z m 1.037109,-9.3515625 c 0.339844,0.3398437 0.679688,0.7148437 1.054688,1.0429688 l 0.234375,0.035156 c 0.726562,0 1.476562,0.011719 2.179687,-0.011719 -0.199218,-0.2578126 -0.46875,-0.4921876 -0.703125,-0.7265626 l -0.234375,-0.2226562 c -0.105468,-0.1171875 -0.199218,-0.140625 -0.351562,-0.140625 h -1.605469 c -0.175781,0 -0.410156,-0.046875 -0.574219,0.023437 z m 3.123047,9.3515625 c 0.07031,-0.046875 0,-0.234375 0.04687,-0.3046875 V -7.7575 c 0.785156,0 1.617188,0.023437 2.378906,-0.011719 -0.269526,-0.363281 -0.632807,-0.644531 -0.949213,-0.9609373 -0.08203,-0.09375 -0.175782,-0.1289062 -0.316407,-0.1289062 H 76.15225 c -0.07031,0 -0.199219,-0.035156 -0.246094,0.035156 -0.04687,0.058594 -0.03516,0.1640625 -0.03516,0.2226563 v 7.8515625 c 0,0.0585938 -0.01172,0.12890625 0.02344,0.1875 0.05859,0.12890625 0.210938,0.24609375 0.316407,0.3515625 z m 4.31836,-7.1132812 -1.042969,1.0429687 v 0.023437 l 1.042969,1.0429688 h 0.01172 l 1.054688,-1.0429688 v -0.023437 z m 0,3.4570312 -1.042969,1.0429687 v 0.023437 l 1.042969,1.0429688 h 0.01172 l 1.054688,-1.0429688 v -0.023437 z m 9.158203,-5.6835938 c 0.339843,0.3515625 0.679687,0.703125 1.054687,1.0312501 0.316406,0.046875 0.691406,0.023437 1.03125,0.023437 L 91.796781,-8.4957813 C 91.691312,-8.60125 91.574125,-8.7301563 91.4335,-8.835625 c -0.234375,-0.023437 -0.480469,-0.023437 -0.738281,-0.023437 -0.05859,0.035156 -0.257813,-0.035156 -0.28125,0.035155 z m 0.688476,-0.011719 c 0.351563,0.3632812 0.703125,0.7265625 1.078125,1.0664063 0.304688,0.011719 0.644532,0.011719 0.972657,0.011719 0,1.1601563 0.02344,2.3554688 -0.01172,3.4804688 -0.117188,-0.1171875 -0.210938,-0.2578125 -0.304688,-0.375 -0.292968,-0.3398438 -0.644531,-0.7265625 -1.078125,-0.8554688 -0.457031,-0.1523437 -0.820312,0.1523438 -0.832031,0.515625 -0.01172,0.2460938 0.105469,0.46875 0.246094,0.65625 0.175781,0.2578125 0.410156,0.4804687 0.644531,0.703125 l 0.914063,0.9492187 c 0.07031,0.070312 3.1875,3.3632813 3.210937,3.3867188 h 0.02344 l 0.328125,-0.328125 V 0.36359375 L 93.411039,-2.6832813 c 0.222656,-0.058594 0.445313,-0.1289062 0.632813,-0.2226562 h 2.144531 c 0.949219,0 1.957031,0.023437 2.871094,-0.023437 l -0.269532,-0.2929688 c -0.257812,-0.2578125 -0.539062,-0.5390625 -0.808593,-0.7734375 -1.207032,-0.046875 -2.496094,0 -3.726563,-0.023437 V -7.7575 h 3.46875 c 0.5625,0 1.136719,0 1.675781,-0.011719 -0.08203,-0.1171875 -0.1875,-0.2109375 -0.28125,-0.3046876 L 98.64932,-8.554375 c -0.164062,-0.1523438 -0.222656,-0.3046875 -0.539062,-0.3046875 h -6.75 c -0.09375,0 -0.175781,0 -0.257813,0.023437 z m 1.242188,4.40625 c 0.04687,0.1289063 0.09375,0.2578125 0.105469,0.3867188 0.01172,0.070312 0.01172,0.1406249 -0.04687,0.1874999 -0.09375,0.070312 -0.222657,-0.09375 -0.28125,-0.1640624 -0.03516,-0.023437 -0.05859,-0.058594 -0.05859,-0.09375 -0.02344,-0.1523438 0.164062,-0.2578125 0.28125,-0.3164063 z m 5.191406,7.8867187 c -0.796875,-0.2695312 -1.535156,-0.8320312 -2.109375,-1.40625 -0.03516,-0.046875 -0.105469,-0.140625 -0.1875,-0.1289062 -0.08203,0.046875 -0.339844,0.234375 -0.269531,0.3398437 0.05859,0.1054688 0.175781,0.1875 0.257812,0.28125 0.222657,0.2109375 0.457032,0.4101563 0.691407,0.609375 0.960937,0.796875 2.074218,1.4765625 3.339843,1.5820313 0.761715,0.058594 1.417965,-0.1289063 1.699215,-0.6796875 0.35157,-0.7265625 -0.10546,-1.5 -0.64453,-2.0039063 -0.23437,-0.1992187 -0.492185,-0.3867187 -0.796872,-0.4921875 -0.890625,-0.28125 -2.003906,0.3164063 -2.191406,1.125 -0.01172,0.1171875 -0.04687,0.2578125 -0.01172,0.375 0.02344,0.1523438 0.128906,0.28125 0.222657,0.3984375 z M 98.426664,3.633125 C 98.496977,3.4690625 98.55557,3.3284375 98.672758,3.1995312 98.989164,2.8128125 99.49307,2.64875 99.973539,2.6135937 c 0,0.8320313 -0.867187,1.0195313 -1.546875,1.0195313 z m 0.632813,-3.1171875 c 0.07031,-0.046875 0,-0.234375 0.04687,-0.3046875 V -7.7575 c 0.785156,0 1.617183,0.023437 2.378903,-0.011719 -0.26953,-0.3632813 -0.63281,-0.6445313 -0.94922,-0.9609376 -0.082,-0.09375 -0.17578,-0.1289062 -0.31641,-0.1289062 h -1.945305 c -0.07031,0 -0.199218,-0.035156 -0.246093,0.035156 -0.04687,0.058594 -0.03516,0.1640625 -0.03516,0.2226563 v 7.8515625 c 0,0.0585938 -0.01172,0.12890625 0.02344,0.1875 0.05859,0.12890625 0.210937,0.24609375 0.316406,0.3515625 z m 1.037113,-9.3515625 c 0.33984,0.3398437 0.67968,0.7148437 1.05468,1.0429688 l 0.23438,0.035156 c 0.72656,0 1.47656,0.011719 2.17969,-0.011719 -0.19922,-0.2578126 -0.46875,-0.4921876 -0.70313,-0.7265626 l -0.23437,-0.2226562 c -0.10547,-0.1171875 -0.19922,-0.140625 -0.35157,-0.140625 h -1.60547 c -0.17578,0 -0.41015,-0.046875 -0.57421,0.023437 z m 3.11132,0.4921875 c -0.0117,-0.3398438 0.0234,-0.6679688 0.11719,-0.984375 0.28125,-1.1015625 1.125,-2.0156255 2.21485,-2.3906255 0.23437,-0.08203 0.48046,-0.128906 0.72656,-0.152343 0.14062,-0.03516 0.28125,-0.02344 0.41015,-0.04687 -0.0703,-0.117188 -0.17578,-0.199219 -0.26953,-0.304688 l -0.49218,-0.480469 c -0.082,-0.09375 -0.19922,-0.246093 -0.32813,-0.292968 -0.11719,-0.04687 -0.25781,0 -0.375,0.01172 -1.66406,0.222657 -2.8125,1.523438 -3.07031,3.0117192 -0.0234,0.2226563 -0.0352,0.4453125 -0.0352,0.6679688 0,0.1289062 0,0.2695312 0.0234,0.3867187 0.0469,0.140625 0.19922,0.2578125 0.30469,0.3515625 l 0.48047,0.4921875 c 0.10546,0.09375 0.19921,0.2109376 0.3164,0.3046876 0.0586,-0.1757813 -0.0234,-0.3867188 -0.0234,-0.5742188 z m 0.0264,8.859375 c 0.0703,-0.046875 0,-0.234375 0.0469,-0.3046875 V -7.7575 c 0.78515,0 1.61718,0.023437 2.3789,-0.011719 -0.26953,-0.3632813 -0.63281,-0.6445313 -0.94922,-0.9609376 -0.082,-0.09375 -0.17578,-0.1289062 -0.3164,-0.1289062 h -1.94532 c -0.0703,0 -0.19921,-0.035156 -0.24609,0.035156 -0.0469,0.058594 -0.0352,0.1640625 -0.0352,0.2226563 v 7.8515625 c 0,0.0585938 -0.0117,0.12890625 0.0234,0.1875 0.0586,0.12890625 0.21094,0.24609375 0.31641,0.3515625 z m 1.03711,-9.3515625 c 0.33984,0.3398437 0.67969,0.7148437 1.05469,1.0429688 l 0.23437,0.035156 c 0.72657,0 1.47657,0.011719 2.17969,-0.011719 -0.19922,-0.2578126 -0.46875,-0.4921876 -0.70312,-0.7265626 l -0.23438,-0.2226562 c -0.10547,-0.1171875 -0.19922,-0.140625 -0.35156,-0.140625 h -1.60547 c -0.17578,0 -0.41016,-0.046875 -0.57422,0.023437 z m 2.08008,0 c 0.35156,0.3632812 0.70312,0.7265625 1.07812,1.0664063 0.30469,0.011719 0.64453,0.011719 0.97266,0.011719 v 2.109375 c 0,0.4453125 0.0234,0.890625 -0.0469,1.3359375 -0.1289,-0.1171875 -0.21093,-0.28125 -0.32812,-0.4101562 -0.29297,-0.328125 -0.63281,-0.6796875 -1.06641,-0.796875 -0.35156,-0.1054688 -0.73828,0.1171875 -0.78515,0.5039062 -0.0586,0.4921875 0.46875,0.9726563 0.78515,1.2890625 l 1.71094,1.6992187 c 0.25781,0.2929688 0.50391,0.5976563 0.78516,0.8671875 0.72656,0.6445313 1.51172,1.1367188 2.42578,1.42968755 0.375,0.12890625 0.76172,0.19921875 1.14844,0.234375 0.1875,0.0234375 0.39843,0.0585938 0.58593,0.0117188 -0.21093,-0.26953125 -0.48047,-0.50390625 -0.72656,-0.75 -0.11719,-0.10546875 -0.22266,-0.2578125 -0.36328,-0.328125 -0.0703,-0.0234375 -0.16406,-0.0234375 -0.25781,-0.0234375 -1.125,-0.12890625 -2.00391,-0.49218755 -2.64844,-1.10156255 -0.14063,-0.1523438 -0.25781,-0.3164063 -0.39844,-0.4804688 -0.17578,-0.1875 -0.375,-0.3398437 -0.53906,-0.5390625 0.48047,-0.035156 0.80859,-0.5039062 0.82031,-0.9492187 0.0117,-0.4570311 0,-0.9374999 0,-1.3945311 V -7.7575 h 3.94922 c 0.62109,0 1.27734,0 1.88672,-0.011719 -0.0703,-0.1171875 -0.1875,-0.2226563 -0.28125,-0.3164063 l -0.49219,-0.4921875 c -0.082,-0.082031 -0.19922,-0.2460938 -0.32812,-0.28125 -0.0703,-0.023437 -0.14063,0 -0.21094,0 h -7.39453 c -0.0937,0 -0.19922,-0.023437 -0.28125,0.023437 z m 5.14453,2.5546875 c -0.21094,0.09375 -0.41016,0.2226563 -0.57422,0.3984375 -0.46875,0.515625 -0.53906,1.3242188 -0.33984,1.96875 0.375,1.1015625 1.59375,2.1445312 2.83593,2.0390625 0.48047,-0.070312 0.89063,-0.28125 1.16016,-0.5625 0.48047,-0.515625 0.55078,-1.3242188 0.35156,-1.96875 -0.42187,-1.2421875 -2.02734,-2.5195312 -3.43359,-1.875 z m 2.41406,1.8398438 c -0.0586,0.5976562 -0.38672,1.1015624 -0.96094,1.3242187 -0.30468,0.1171875 -0.63281,0.1640625 -0.94921,0.1054687 -0.082,-0.011719 -0.23438,-0.046875 -0.30469,-0.1171875 -0.0352,-0.046875 -0.0586,-0.1289062 -0.0703,-0.1875 -0.0469,-0.1640625 -0.0586,-0.3515625 -0.0469,-0.5273437 0.0586,-0.6914062 0.43359,-1.1484375 0.96094,-1.3476562 0.30469,-0.1289063 0.63281,-0.1757813 0.94922,-0.1171875 0.25781,0.046875 0.35156,0.082031 0.38672,0.3164062 0.0469,0.1757813 0.0586,0.3632813 0.0352,0.5507813 z m -6.3164,0.011719 c 0.0469,0.1289063 0.0937,0.2578125 0.10546,0.3867188 0.0117,0.070312 0.0117,0.1406249 -0.0469,0.1874999 -0.0937,0.070312 -0.22266,-0.09375 -0.28125,-0.1640624 -0.0352,-0.023437 -0.0586,-0.058594 -0.0586,-0.09375 -0.0234,-0.1523438 0.16406,-0.2578125 0.28125,-0.3164063 z m 7.40332,4.9453125 c 0.0703,-0.046875 0,-0.234375 0.0469,-0.3046875 V -7.7575 c 0.78516,0 1.61719,0.023437 2.37891,-0.011719 -0.26953,-0.3632813 -0.63281,-0.6445313 -0.94922,-0.9609376 -0.082,-0.09375 -0.17578,-0.1289062 -0.31641,-0.1289062 h -1.94531 c -0.0703,0 -0.19922,-0.035156 -0.24609,0.035156 -0.0469,0.058594 -0.0352,0.1640625 -0.0352,0.2226563 v 7.8515625 c 0,0.0585938 -0.0117,0.12890625 0.0234,0.1875 0.0586,0.12890625 0.21094,0.24609375 0.3164,0.3515625 z m 1.03711,-9.3515625 c 0.33984,0.3398437 0.67968,0.7148437 1.05468,1.0429688 l 0.23438,0.035156 c 0.72656,0 1.47656,0.011719 2.17969,-0.011719 -0.19922,-0.2578126 -0.46875,-0.4921876 -0.70313,-0.7265626 l -0.23437,-0.2226562 c -0.10547,-0.1171875 -0.19922,-0.140625 -0.35157,-0.140625 h -1.60547 c -0.17578,0 -0.41015,-0.046875 -0.57421,0.023437 z m 2.083,0 c 0.35157,0.3632812 0.70313,0.7265625 1.07813,1.0664063 1.41797,0.070312 3.01172,-0.023437 4.46484,0.011719 0.46875,0 0.9375,0 1.38281,-0.011719 l -0.73828,-0.7500001 c -0.10547,-0.1171875 -0.22265,-0.234375 -0.35156,-0.328125 -1.44141,-0.070312 -3.04687,0.011719 -4.52344,-0.011719 -0.44531,0 -0.90234,-0.023437 -1.3125,0.023438 z m 2.46094,5.2265625 c 1.37109,0 2.78906,0.035156 4.125,-0.023437 l -0.73828,-0.7382812 c -0.11719,-0.1171875 -0.22266,-0.234375 -0.35156,-0.328125 -1.17188,-0.046875 -2.41407,0 -3.60938,-0.023437 -0.39844,0 -0.80859,-0.011719 -1.18359,0.035156 -0.28125,-0.070312 -0.58594,0.2226563 -0.66797,0.46875 -0.35156,0.9609375 1.05469,2.484375 2.16797,2.3203125 0.39844,-0.035156 0.75,-0.2929688 0.8789,-0.6796875 0.0234,-0.09375 0.082,-0.234375 0.0586,-0.328125 -0.0352,-0.09375 -0.12891,-0.1640625 -0.19922,-0.234375 z M 120.05069,-3.445 c -0.1875,0.2695312 -0.46875,0.4335937 -0.84375,0.4570312 0,-0.140625 0.0586,-0.28125 0.11718,-0.3632812 0.22266,-0.3046875 0.59766,-0.2578125 0.92579,-0.2578125 z m 4.63183,3.9609375 c 0.0703,-0.046875 0,-0.234375 0.0469,-0.3046875 V -7.7575 c 0.78515,0 1.61719,0.023437 2.3789,-0.011719 -0.26953,-0.3632813 -0.63281,-0.6445313 -0.94921,-0.9609376 -0.082,-0.09375 -0.17579,-0.1289062 -0.31641,-0.1289062 h -1.94531 c -0.0703,0 -0.19922,-0.035156 -0.2461,0.035156 -0.0469,0.058594 -0.0352,0.1640625 -0.0352,0.2226563 v 7.8515625 c 0,0.0585938 -0.0117,0.12890625 0.0234,0.1875 0.0586,0.12890625 0.21094,0.24609375 0.31641,0.3515625 z m 1.03711,-9.3515625 c 0.33985,0.3398437 0.67969,0.7148437 1.05469,1.0429688 l 0.23438,0.035156 c 0.72656,0 1.47656,0.011719 2.17968,-0.011719 -0.19922,-0.2578126 -0.46875,-0.4921876 -0.70312,-0.7265626 l -0.23438,-0.2226562 c -0.10547,-0.1171875 -0.19922,-0.140625 -0.35156,-0.140625 h -1.60547 c -0.17578,0 -0.41015,-0.046875 -0.57422,0.023437 z m -1.70508,-2.390625 c 0.28125,-0.386719 0.9375,-0.773438 1.62891,-0.644531 0.19922,0.03516 0.42188,0.09375 0.5625,0.234375 0.14063,0.164062 0.26953,0.351562 0.375,0.539062 0.42188,0.679688 0.73828,1.417969 1.17188,2.0859377 0.0469,0.070312 0.0469,0.1640625 0.10546,0.234375 0.10547,0.1523438 0.26954,0.28125 0.41016,0.4335938 0.1875,0.1875 0.375,0.3984375 0.58594,0.5742188 0.1875,-0.3632813 -0.0586,-0.6796876 -0.25781,-0.9609376 -0.96094,-1.5585937 -1.62891,-3.6093747 -3.51563,-4.1953127 -0.55078,-0.175781 -1.19531,-0.117187 -1.6875,0.222656 -0.11719,0.08203 -0.21094,0.164063 -0.31641,0.269532 -0.0234,0.03516 -0.082,0.08203 -0.082,0.140625 0,0.04687 0.0352,0.08203 0.0703,0.117187 0,0 1.01953,1.019531 0.94921,0.949219 z m 4.82813,11.7421875 c 0.0703,-0.046875 0,-0.234375 0.0469,-0.3046875 V -7.7575 c 0.78516,0 1.61719,0.023437 2.37891,-0.011719 -0.26953,-0.3632813 -0.63281,-0.6445313 -0.94922,-0.9609376 -0.082,-0.09375 -0.17578,-0.1289062 -0.3164,-0.1289062 h -1.94532 c -0.0703,0 -0.19922,-0.035156 -0.24609,0.035156 -0.0469,0.058594 -0.0352,0.1640625 -0.0352,0.2226563 v 7.8515625 c 0,0.0585938 -0.0117,0.12890625 0.0234,0.1875 0.0586,0.12890625 0.21094,0.24609375 0.31641,0.3515625 z m 7.2334,-9.3515625 c 0.35156,0.3632812 0.70312,0.7265625 1.07812,1.0664063 0.30469,0.011719 0.64453,0.011719 0.97266,0.011719 v 3.0351563 h -0.99609 c -0.1875,0 -0.38672,-0.023437 -0.55079,0.046875 -0.082,0.011719 -0.15234,0.058594 -0.21093,0.1054687 -0.39844,0.2929688 -0.35157,0.8320312 -0.17578,1.2421875 0.0703,0.1992187 0.19921,0.375 0.32812,0.5507812 0.31641,0.3867188 0.73828,0.7265625 1.23047,0.8554688 0.57422,0.140625 1.21875,-0.070312 1.41797,-0.6796875 0.10547,-0.328125 0.0586,-0.6796875 0.0586,-1.0078125 h 3.22266 c 0.53906,0 1.0664,0 1.58203,-0.023437 l -0.72656,-0.7382812 c -0.11719,-0.1171875 -0.23438,-0.234375 -0.36328,-0.328125 -1.19532,-0.046875 -2.4961,0 -3.71485,-0.023437 v -2.8828125 c 0,-0.1171875 0.0117,-0.2578125 -0.0234,-0.375 -0.0352,-0.1054688 -0.10546,-0.2109376 -0.17578,-0.2929688 -0.16406,-0.2226563 -0.38672,-0.4453125 -0.64453,-0.5507813 -0.14062,-0.058594 -0.30469,-0.035156 -0.44531,-0.035156 h -1.48828 c -0.12891,0 -0.25781,-0.023437 -0.375,0.023437 z m 4.82812,0 c 0.35157,0.3398437 0.69141,0.7148437 1.06641,1.0429688 l 0.22266,0.035156 c 0.73828,0 1.47656,0.011719 2.17968,-0.011719 -0.19922,-0.2578126 -0.46875,-0.4921876 -0.70312,-0.7265626 l -0.21094,-0.2109375 c -0.0469,-0.046875 -0.0937,-0.1054687 -0.15234,-0.1289062 -0.0586,-0.046875 -0.15235,-0.023437 -0.22266,-0.023437 h -1.60547 c -0.17578,0 -0.39844,-0.046875 -0.57422,0.023437 z m -3.73828,5.8476562 c 0,-0.140625 0.0586,-0.28125 0.11719,-0.3632812 0.19922,-0.28125 0.49219,-0.2578125 0.79687,-0.2578125 -0.14062,0.3984375 -0.5039,0.609375 -0.91406,0.6210937 z m 6.87012,3.5039063 c 0.0703,-0.046875 0,-0.234375 0.0469,-0.3046875 V -7.7575 c 0.78516,0 1.61719,0.023437 2.37891,-0.011719 -0.26953,-0.3632813 -0.63281,-0.6445313 -0.94922,-0.9609376 -0.082,-0.09375 -0.17578,-0.1289062 -0.3164,-0.1289062 h -1.94532 c -0.0703,0 -0.19922,-0.035156 -0.24609,0.035156 -0.0469,0.058594 -0.0352,0.1640625 -0.0352,0.2226563 v 7.8515625 c 0,0.0585938 -0.0117,0.12890625 0.0234,0.1875 0.0586,0.12890625 0.21094,0.24609375 0.31641,0.3515625 z m 1.03711,-9.3515625 c 0.33984,0.3398437 0.67969,0.7148437 1.05469,1.0429688 l 0.23437,0.035156 c 0.72656,0 1.47656,0.011719 2.17969,-0.011719 -0.19922,-0.2578126 -0.46875,-0.4921876 -0.70313,-0.7265626 L 147.6044,-8.718438 c -0.10547,-0.1171875 -0.19922,-0.140625 -0.35156,-0.140625 h -1.60547 c -0.17578,0 -0.41016,-0.046875 -0.57422,0.023437 z m 2.08008,0 c 0.35156,0.3632812 0.70312,0.7265625 1.07812,1.0664063 1.45313,0 3.02344,0.070312 4.45313,0 l -0.26953,-0.3046876 c -0.25782,-0.2578125 -0.52735,-0.5273437 -0.8086,-0.7734375 -1.10156,-0.046875 -2.30859,0 -3.43359,-0.011719 -0.35156,0 -0.70313,0 -1.01953,0.023438 z m 1.93359,2.25 c -0.85547,0.1054688 -1.65234,0.6445313 -1.89844,1.4882813 -0.0351,0.1757812 -0.0586,0.3515625 -0.0586,0.5273437 0,0.609375 0.29297,1.0429687 0.57422,1.4414062 0.63281,0.8203125 1.65234,1.4882813 2.73047,1.3945313 0.85547,-0.1054688 1.65234,-0.6445313 1.89843,-1.4882813 0.0352,-0.1757812 0.0469,-0.3515625 0.0469,-0.515625 0,-0.6210937 -0.28125,-1.0546874 -0.5625,-1.4531249 -0.63281,-0.8203125 -1.65234,-1.4882813 -2.73047,-1.3945313 z m 2.17969,2.109375 c -0.082,0.8671875 -0.83203,1.4765625 -1.66406,1.6054687 -0.38672,0.058594 -0.98438,0 -1.19532,-0.2226562 -0.15234,-0.1757813 -0.17578,-0.5039063 -0.16406,-0.7265625 0.082,-0.8671875 0.83203,-1.4882812 1.66406,-1.6289062 0.39844,-0.058594 0.9961,-0.011719 1.20703,0.2226562 0.15235,0.1875 0.17579,0.5273438 0.15235,0.75 z m 1.07519,4.9921875 c 0.0703,-0.046875 0,-0.234375 0.0469,-0.3046875 V -7.7575 c 0.78515,0 1.61719,0.023437 2.3789,-0.011719 -0.26953,-0.3632813 -0.63281,-0.6445313 -0.94921,-0.9609376 -0.082,-0.09375 -0.17579,-0.1289062 -0.31641,-0.1289062 h -1.94531 c -0.0703,0 -0.19922,-0.035156 -0.2461,0.035156 -0.0469,0.058594 -0.0352,0.1640625 -0.0352,0.2226563 v 7.8515625 c 0,0.0585938 -0.0117,0.12890625 0.0234,0.1875 0.0586,0.12890625 0.21094,0.24609375 0.31641,0.3515625 z m 1.03711,-9.3515625 c 0.33985,0.3398437 0.67969,0.7148437 1.05469,1.0429688 l 0.23437,0.035156 c 0.72657,0 1.47657,0.011719 2.17969,-0.011719 -0.19922,-0.2578126 -0.46875,-0.4921876 -0.70312,-0.7265626 l -0.23438,-0.2226562 c -0.10547,-0.1171875 -0.19922,-0.140625 -0.35156,-0.140625 h -1.60547 c -0.17578,0 -0.41016,-0.046875 -0.57422,0.023437 z m 2.08008,0 c 0.35156,0.3632812 0.70313,0.7265625 1.07813,1.0664063 1.41796,0.070312 3.01171,-0.023437 4.46484,0.011719 0.46875,0 0.9375,0 1.38281,-0.011719 l -0.73828,-0.7500001 c -0.10547,-0.1171875 -0.22266,-0.234375 -0.35156,-0.328125 -1.44141,-0.070312 -3.04688,0.011719 -4.52344,-0.011719 -0.44531,0 -0.90234,-0.023437 -1.3125,0.023438 z m 2.46094,5.2265625 c 1.37109,0 2.78906,0.035156 4.125,-0.023437 l -0.73828,-0.7382812 c -0.11719,-0.1171875 -0.22266,-0.234375 -0.35157,-0.328125 -1.17187,-0.046875 -2.41406,0 -3.60937,-0.023437 -0.39844,0 -0.80859,-0.011719 -1.18359,0.035156 -0.28125,-0.070312 -0.58594,0.2226563 -0.66797,0.46875 -0.35157,0.9609375 1.05468,2.484375 2.16797,2.3203125 0.39843,-0.035156 0.75,-0.2929688 0.8789,-0.6796875 0.0234,-0.09375 0.082,-0.234375 0.0586,-0.328125 -0.0352,-0.09375 -0.12891,-0.1640625 -0.19922,-0.234375 z M 157.39248,-3.445 c -0.1875,0.2695312 -0.46875,0.4335937 -0.84375,0.4570312 0,-0.140625 0.0586,-0.28125 0.11719,-0.3632812 0.22266,-0.3046875 0.59766,-0.2578125 0.92578,-0.2578125 z m 3.58887,-5.390625 c 0.35156,0.3632812 0.70313,0.7265625 1.07813,1.0664063 1.65234,0 3.5039,0.070312 5.15625,0 l -0.72657,-0.7500001 c -0.11718,-0.1171875 -0.23437,-0.234375 -0.36328,-0.328125 -1.28906,-0.046875 -2.64843,0 -3.97265,-0.011719 -0.39844,0 -0.82032,-0.023437 -1.17188,0.023438 z m 3.12891,9.2109375 V 0.36359375 C 163.25479,-0.491875 162.49307,-1.47625 162.2001,-2.6715625 c -0.0586,-0.234375 -0.10547,-0.5039063 -0.11719,-0.7617188 -0.082,-0.9023437 0.49219,-1.2890624 1.08985,-1.4531249 1.04297,-0.3164063 2.25,0.1523437 3,0.9023437 0.082,-0.070313 0.15234,-0.1523437 0.22265,-0.234375 0.0352,-0.023437 0.082,-0.070312 0.082,-0.1171875 0,-0.09375 -0.17579,-0.2226562 -0.28125,-0.2929687 -0.46875,-0.4335938 -0.97266,-0.7734375 -1.59375,-1.0664063 -0.83204,-0.4101562 -2.20313,-0.6679687 -3.09375,0.035156 -0.11719,0.082031 -0.21094,0.1757812 -0.30469,0.2929687 -0.31641,0.4335938 -0.26953,1.0078125 -0.1875,1.5117187 0.28125,1.6523438 1.34765,3.1054688 2.40234,4.21875005 l 0.2227,0.22265655 c 0.0351,0.0351563 0.0703,0.0703125 0.11719,0.0703125 0.0469,0 0.0937,-0.0351563 0.11718,-0.0703125 0.0703,-0.0703125 0.15235,-0.140625 0.23438,-0.2109375 z m 1.22754,3.0820312 c -0.79688,-0.2695312 -1.53516,-0.8320312 -2.10938,-1.40625 -0.0351,-0.046875 -0.10547,-0.140625 -0.1875,-0.1289062 -0.082,0.046875 -0.33984,0.234375 -0.26953,0.3398437 0.0586,0.1054688 0.17578,0.1875 0.25781,0.28125 0.22266,0.2109375 0.45703,0.4101563 0.69141,0.609375 0.96094,0.796875 2.07422,1.4765625 3.33984,1.5820313 0.76172,0.058594 1.41797,-0.1289063 1.69922,-0.6796875 0.35156,-0.7265625 -0.10547,-1.5 -0.64453,-2.0039063 -0.23437,-0.1992187 -0.49219,-0.3867187 -0.79687,-0.4921875 -0.89063,-0.28125 -2.00391,0.3164063 -2.19141,1.125 -0.0117,0.1171875 -0.0469,0.2578125 -0.0117,0.375 0.0234,0.1523438 0.12891,0.28125 0.22266,0.3984375 z m 0.89062,0.1757813 c 0.0703,-0.1640625 0.12891,-0.3046875 0.2461,-0.4335938 0.3164,-0.3867187 0.82031,-0.5507812 1.30078,-0.5859375 0,0.8320313 -0.86719,1.0195313 -1.54688,1.0195313 z m 0.63281,-3.1171875 c 0.0703,-0.046875 0,-0.234375 0.0469,-0.3046875 V -7.7575 c 0.78516,0 1.61719,0.023437 2.37891,-0.011719 -0.26954,-0.3632813 -0.63282,-0.6445313 -0.94922,-0.9609376 -0.082,-0.09375 -0.17578,-0.1289062 -0.31641,-0.1289062 h -1.94531 c -0.0703,0 -0.19922,-0.035156 -0.2461,0.035156 -0.0469,0.058594 -0.0352,0.1640625 -0.0352,0.2226563 v 7.8515625 c 0,0.0585938 -0.0117,0.12890625 0.0234,0.1875 0.0586,0.12890625 0.21093,0.24609375 0.3164,0.3515625 z m 11.40821,-9.3398438 c -0.0469,0.2226563 -0.0234,0.4453125 -0.0234,0.6679688 v 7.3125 c 0,0.0820313 -0.0117,0.1875 0.0234,0.26953125 0.0351,0.12890625 0.19922,0.24609375 0.29297,0.33984375 l 0.75,0.75 0.0469,-0.234375 v -7.5 c 0,-0.1875 0,-0.3632812 -0.0117,-0.5273437 l -0.30469,-0.3281251 c -0.25781,-0.2578125 -0.5039,-0.515625 -0.77343,-0.75 z m 2.08008,0 c -0.0469,0.2226563 -0.0234,0.4453125 -0.0234,0.6679688 v 7.3125 c 0,0.0820313 -0.0117,0.1875 0.0234,0.26953125 0.0351,0.12890625 0.19921,0.24609375 0.29296,0.33984375 l 0.75,0.75 0.0469,-0.234375 v -7.5 c 0,-0.1875 0,-0.3632812 -0.0117,-0.5273437 l -0.30469,-0.3281251 c -0.25781,-0.2578125 -0.5039,-0.515625 -0.77343,-0.75 z m 0,0"
         style="fill:#000000;fill-opacity:1;fill-rule:nonzero;stroke:none" />
      <path
         id="path3"
         d="m -15.210055,21.003242 c 0.01172,-0.05859 0.03516,-0.128906 0.03516,-0.199219 0,-0.222656 -0.222657,-0.210937 -0.386719,-0.199218 l -1.464844,0.07031 c -0.128906,0.01172 -0.375,0.01172 -0.375,0.363281 0,0.210938 0.210938,0.210938 0.328125,0.210938 0.140625,0 0.351563,0.01172 0.492188,0.02344 l -1.535157,6.210938 c -0.04687,0.1875 -0.04687,0.269531 -0.04687,0.339844 0,0.761718 0.714844,1.160156 1.382813,1.160156 0.5625,0 0.867187,-0.410156 1.019531,-0.644531 0.304688,-0.503907 0.46875,-1.171875 0.46875,-1.21875 0,-0.164063 -0.164062,-0.164063 -0.339844,-0.164063 -0.28125,0 -0.292968,0.01172 -0.386718,0.304688 -0.09375,0.398437 -0.304688,1.289062 -0.714844,1.289062 -0.140625,0 -0.222656,-0.09375 -0.222656,-0.363281 0,-0.234375 0.02344,-0.328125 0.07031,-0.515625 z m 6.6093753,4.488281 c 0,-1.230468 -0.8554687,-2.003906 -2.2734373,-2.003906 -2.367188,0 -3.5625,1.992188 -3.5625,3.492188 0,1.230468 0.855469,2.003906 2.273437,2.003906 2.3554691,0 3.5625003,-1.980469 3.5625003,-3.492188 z m -3.5390623,3.058594 c -0.421875,0 -0.996094,-0.199219 -0.996094,-1.042969 0,-0.46875 0.316406,-1.804687 0.609375,-2.4375 0.351563,-0.761718 1.019531,-1.148437 1.628906,-1.148437 0.421875,0 0.9960941,0.199219 0.9960941,1.042969 0,0.46875 -0.3164061,1.804687 -0.6093751,2.449218 -0.351562,0.75 -1.019531,1.136719 -1.628906,1.136719 z m 7.5322264,-7.546875 c 0.011719,-0.05859 0.035156,-0.128906 0.035156,-0.199219 0,-0.222656 -0.2226562,-0.210937 -0.3867187,-0.199218 l -1.4648438,0.07031 c -0.1289062,0.01172 -0.375,0.01172 -0.375,0.363281 0,0.210938 0.2109375,0.210938 0.328125,0.210938 0.140625,0 0.3515625,0.01172 0.4921875,0.02344 l -1.7109375,6.9375 c -0.046875,0.175782 -0.046875,0.199219 -0.046875,0.257813 0,0.304687 0.2226563,0.515625 0.5390625,0.515625 0.2578125,0 0.5742188,-0.152344 0.7148438,-0.492188 0.023437,-0.07031 0.28125,-1.148437 0.5390625,-2.15625 0.3515625,0.05859 1.0898437,0.246094 1.0898437,0.878907 0,0.05859 0,0.117187 -0.035156,0.257812 -0.023437,0.105469 -0.035156,0.164063 -0.035156,0.292969 0,0.714844 0.6328125,1.21875 1.4179688,1.21875 1.2070312,0 1.6171875,-1.769531 1.6171875,-1.863281 0,-0.164063 -0.1523438,-0.164063 -0.328125,-0.164063 -0.2929688,0 -0.3046875,0.01172 -0.3867188,0.316406 -0.1757812,0.703125 -0.421875,1.277344 -0.84375,1.277344 -0.1054687,0 -0.2695312,-0.02344 -0.2695312,-0.398437 0,-0.02344 0,-0.246094 0.09375,-0.621094 0.023437,-0.117188 0.058594,-0.246094 0.058594,-0.363281 0,-0.902344 -1.03125,-1.183594 -1.8984375,-1.277344 0.4335938,-0.316406 0.84375,-0.75 0.8671875,-0.761719 0.8085938,-0.914062 1.3242188,-1.207031 1.78125,-1.207031 0.035156,0 0.1757813,0 0.2109375,0.140625 -0.4921875,0.05859 -0.796875,0.46875 -0.796875,0.855469 0,0.304687 0.2226563,0.550781 0.5976563,0.550781 0.3398437,0 0.8671875,-0.246094 0.8671875,-1.03125 0,-0.363281 -0.1640625,-0.949219 -0.84375,-0.949219 -0.6679688,0 -1.2539063,0.46875 -2.0273438,1.277344 -0.46875,0.503906 -0.6796875,0.667969 -0.9609375,0.855469 z m 8.9970703,3.445313 c 0.046875,-0.1875 0.046875,-0.210938 0.046875,-0.257813 0,-0.269531 -0.1992188,-0.503906 -0.5390625,-0.503906 -0.1992188,0 -0.3984375,0.09375 -0.5625,0.257812 -0.375,-0.398437 -0.84375,-0.457031 -1.1601563,-0.457031 -2.00390621,0 -3.1992187,1.980469 -3.1992187,3.585938 0,1.417968 1.00781249,1.910156 1.91015624,1.910156 0.73828126,0 1.28906246,-0.375 1.58203126,-0.609375 0.2226562,0.421875 0.7617187,0.609375 1.2304687,0.609375 0.5625,0 0.8554688,-0.410156 1.0195313,-0.644531 0.3046875,-0.503907 0.46875,-1.171875 0.46875,-1.21875 0,-0.164063 -0.1640625,-0.164063 -0.3398438,-0.164063 -0.2929687,0 -0.3046875,0.01172 -0.3867187,0.304688 -0.09375,0.398437 -0.3046875,1.289062 -0.7148438,1.289062 -0.140625,0 -0.2226562,-0.09375 -0.2226562,-0.363281 0,-0.234375 0.023437,-0.328125 0.070312,-0.515625 z m -2.0273438,3.035156 c -0.023437,0.08203 -0.023437,0.117187 -0.035156,0.210937 -0.515625,0.679688 -1.0195313,0.855469 -1.39453126,0.855469 -0.26953125,0 -0.6796875,-0.164062 -0.6796875,-0.84375 0,-0.644531 0.421875,-2.121094 0.55078125,-2.449219 0.41015621,-1.160156 1.06640621,-1.335937 1.37109371,-1.335937 0.421875,0 0.7617188,0.257812 0.890625,0.738281 z m 6.4570313,-6.480469 c 0.011719,-0.05859 0.035156,-0.128906 0.035156,-0.199219 0,-0.222656 -0.2226562,-0.210937 -0.3867187,-0.199218 l -1.4648438,0.07031 c -0.1289062,0.01172 -0.375,0.01172 -0.375,0.363281 0,0.210938 0.2109375,0.210938 0.328125,0.210938 0.140625,0 0.3515625,0.01172 0.4921875,0.02344 l -1.7109375,6.9375 c -0.046875,0.175782 -0.046875,0.199219 -0.046875,0.257813 0,0.304687 0.2226563,0.515625 0.5390625,0.515625 0.1523438,0 0.5976563,-0.05859 0.75,-0.632813 l 0.7382813,-2.976562 c 0.082031,-0.328125 0.75,-1.453125 1.8398437,-1.453125 0.5156248,0 0.5156248,0.445312 0.5156248,0.679687 0,0.714844 -0.550781,2.179688 -0.7617185,2.71875 -0.1171875,0.304688 -0.1523438,0.421875 -0.1523438,0.597657 0,0.667968 0.609375,1.066406 1.2539063,1.066406 1.253906,0 1.839844,-1.617188 1.839844,-1.863281 0,-0.164063 -0.164063,-0.164063 -0.339844,-0.164063 -0.222656,0 -0.292969,0 -0.339844,0.152344 -0.09375,0.316406 -0.410156,1.441406 -1.089843,1.441406 -0.07031,0 -0.175782,0 -0.175782,-0.210937 0,-0.246094 0.117188,-0.5625 0.28125,-0.972657 0.164063,-0.433593 0.703125,-1.851562 0.703125,-2.53125 0,-0.984375 -0.703125,-1.347656 -1.6523435,-1.347656 -0.609375,0 -1.0898438,0.1875 -1.6054688,0.609375 z m -0.041016,9.922852 c 0,-0.410157 -0.2929688,-0.703125 -0.7265625,-0.703125 -0.4921875,0 -1.0664063,0.457031 -1.0664063,1.054687 0,0.492188 0.375,0.703125 0.7265625,0.703125 0.5390625,0 1.0664063,-0.492187 1.0664063,-1.054687 z M 21.803617,24.202461 c -0.445312,0.199219 -0.445312,0.632812 -0.445312,0.667969 0,0.304687 0.222656,0.492187 0.515625,0.492187 0.304687,0 0.75,-0.234375 0.75,-0.820312 0,-0.65625 -0.667969,-1.054688 -1.617188,-1.054688 -0.9375,0 -1.347656,0.316406 -1.570312,0.503906 -0.386719,0.328125 -0.632813,0.960938 -0.632813,1.335938 0,1.019531 1.03125,1.21875 1.40625,1.289062 0.621094,0.117188 1.253906,0.246094 1.253906,0.796875 0,0.01172 0,1.136719 -1.664062,1.136719 -0.152344,0 -0.714844,0 -1.113281,-0.316406 0.08203,-0.03516 0.585937,-0.269531 0.585937,-0.808594 0,-0.457031 -0.386719,-0.550781 -0.585937,-0.550781 -0.445313,0 -0.855469,0.339844 -0.855469,0.925781 0,0.75 0.773437,1.183594 1.933594,1.183594 0.339843,0 1.101562,-0.01172 1.746093,-0.46875 0.621094,-0.433594 0.855469,-1.195313 0.855469,-1.582031 0,-0.269532 -0.08203,-0.667969 -0.527344,-1.019532 -0.339843,-0.269531 -0.644531,-0.339843 -1.277343,-0.457031 -0.351563,-0.07031 -0.84375,-0.164062 -0.84375,-0.609375 0,-0.01172 0,-0.925781 1.265625,-0.925781 0.117187,0 0.550781,0 0.820312,0.28125 z m 7.49707,0.246094 c 0.04687,-0.1875 0.04687,-0.210938 0.04687,-0.257813 0,-0.269531 -0.199218,-0.503906 -0.539062,-0.503906 -0.199219,0 -0.398438,0.09375 -0.5625,0.257812 -0.375,-0.398437 -0.84375,-0.457031 -1.160156,-0.457031 -2.003907,0 -3.199219,1.980469 -3.199219,3.585938 0,1.417968 1.007812,1.910156 1.910156,1.910156 0.738281,0 1.289063,-0.375 1.582031,-0.609375 0.222657,0.421875 0.761719,0.609375 1.230469,0.609375 0.5625,0 0.855469,-0.410156 1.019531,-0.644531 0.304688,-0.503907 0.46875,-1.171875 0.46875,-1.21875 0,-0.164063 -0.164062,-0.164063 -0.339843,-0.164063 -0.292969,0 -0.304688,0.01172 -0.386719,0.304688 -0.09375,0.398437 -0.304688,1.289062 -0.714844,1.289062 -0.140625,0 -0.222656,-0.09375 -0.222656,-0.363281 0,-0.234375 0.02344,-0.328125 0.07031,-0.515625 z m -2.027343,3.035156 c -0.02344,0.08203 -0.02344,0.117187 -0.03516,0.210937 -0.515625,0.679688 -1.019531,0.855469 -1.394531,0.855469 -0.269531,0 -0.679687,-0.164062 -0.679687,-0.84375 0,-0.644531 0.421875,-2.121094 0.550781,-2.449219 0.410156,-1.160156 1.066406,-1.335937 1.371094,-1.335937 0.421875,0 0.761718,0.257812 0.890625,0.738281 z m 6.055664,-2.109375 c 0.08203,-0.339844 0.75,-1.453125 1.839844,-1.453125 0.515625,0 0.515625,0.445312 0.515625,0.679687 0,0.292969 -0.04687,0.503907 -0.175782,1.019532 l -0.503906,2.003906 c -0.07031,0.28125 -0.1875,0.761719 -0.1875,0.84375 0,0.375 0.28125,0.515625 0.527344,0.515625 0.152344,0 0.621094,-0.05859 0.773437,-0.667969 l 0.726563,-2.941406 c 0.08203,-0.339844 0.761719,-1.453125 1.839844,-1.453125 0.515625,0 0.515625,0.445312 0.515625,0.679687 0,0.714844 -0.550782,2.179688 -0.761719,2.71875 -0.117188,0.304688 -0.152344,0.421875 -0.152344,0.597657 0,0.667968 0.609375,1.066406 1.265625,1.066406 1.242188,0 1.828125,-1.617188 1.828125,-1.863281 0,-0.164063 -0.164062,-0.164063 -0.339844,-0.164063 -0.222656,0 -0.28125,0 -0.339843,0.152344 -0.09375,0.316406 -0.410157,1.441406 -1.089844,1.441406 -0.05859,0 -0.175781,0 -0.175781,-0.210937 0,-0.246094 0.128906,-0.5625 0.28125,-0.972657 0.164062,-0.433593 0.703125,-1.851562 0.703125,-2.53125 0,-0.984375 -0.703125,-1.347656 -1.652344,-1.347656 -0.949219,0 -1.5,0.503906 -1.910156,0.902344 -0.257813,-0.902344 -1.347657,-0.902344 -1.605469,-0.902344 -0.246094,0 -1.03125,0 -1.828125,0.820313 -0.234375,-0.679688 -0.949219,-0.820313 -1.335938,-0.820313 -0.5625,0 -0.855468,0.410156 -1.019531,0.644531 -0.304687,0.503907 -0.457031,1.171875 -0.457031,1.21875 0,0.164063 0.152344,0.164063 0.328125,0.164063 0.292969,0 0.304687,-0.01172 0.386719,-0.304688 0.09375,-0.398437 0.304687,-1.289062 0.714843,-1.289062 0.140625,0 0.222657,0.09375 0.222657,0.363281 0,0.234375 -0.02344,0.328125 -0.07031,0.515625 l -0.84375,3.410156 c -0.04687,0.175782 -0.04687,0.199219 -0.04687,0.257813 0,0.375 0.28125,0.515625 0.539063,0.515625 0.08203,0 0.597656,-0.02344 0.75,-0.644531 z M 47.65225,24.448555 c 0.04687,-0.1875 0.04687,-0.210938 0.04687,-0.257813 0,-0.269531 -0.199219,-0.503906 -0.539063,-0.503906 -0.199218,0 -0.398437,0.09375 -0.5625,0.257812 -0.375,-0.398437 -0.84375,-0.457031 -1.160156,-0.457031 -2.003906,0 -3.199219,1.980469 -3.199219,3.585938 0,1.417968 1.007813,1.910156 1.910157,1.910156 0.738281,0 1.289062,-0.375 1.582031,-0.609375 0.222656,0.421875 0.761719,0.609375 1.230469,0.609375 0.5625,0 0.855468,-0.410156 1.019531,-0.644531 0.304687,-0.503907 0.46875,-1.171875 0.46875,-1.21875 0,-0.164063 -0.164063,-0.164063 -0.339844,-0.164063 -0.292969,0 -0.304687,0.01172 -0.386719,0.304688 -0.09375,0.398437 -0.304687,1.289062 -0.714843,1.289062 -0.140625,0 -0.222657,-0.09375 -0.222657,-0.363281 0,-0.234375 0.02344,-0.328125 0.07031,-0.515625 z m -2.027344,3.035156 c -0.02344,0.08203 -0.02344,0.117187 -0.03516,0.210937 -0.515625,0.679688 -1.019531,0.855469 -1.394531,0.855469 -0.269532,0 -0.679688,-0.164062 -0.679688,-0.84375 0,-0.644531 0.421875,-2.121094 0.550781,-2.449219 0.410157,-1.160156 1.066407,-1.335937 1.371094,-1.335937 0.421875,0 0.761719,0.257812 0.890625,0.738281 z m 7.403321,-3.28125 c -0.445313,0.199219 -0.445313,0.632812 -0.445313,0.667969 0,0.304687 0.222656,0.492187 0.515625,0.492187 0.304688,0 0.75,-0.234375 0.75,-0.820312 0,-0.65625 -0.667969,-1.054688 -1.617187,-1.054688 -0.9375,0 -1.347657,0.316406 -1.570313,0.503906 -0.386719,0.328125 -0.632812,0.960938 -0.632812,1.335938 0,1.019531 1.03125,1.21875 1.40625,1.289062 0.621093,0.117188 1.253906,0.246094 1.253906,0.796875 0,0.01172 0,1.136719 -1.664063,1.136719 -0.152343,0 -0.714843,0 -1.113281,-0.316406 0.08203,-0.03516 0.585938,-0.269531 0.585938,-0.808594 0,-0.457031 -0.386719,-0.550781 -0.585938,-0.550781 -0.445312,0 -0.855469,0.339844 -0.855469,0.925781 0,0.75 0.773438,1.183594 1.933594,1.183594 0.339844,0 1.101563,-0.01172 1.746094,-0.46875 0.621094,-0.433594 0.855469,-1.195313 0.855469,-1.582031 0,-0.269532 -0.08203,-0.667969 -0.527344,-1.019532 -0.339844,-0.269531 -0.644531,-0.339843 -1.277344,-0.457031 -0.351562,-0.07031 -0.84375,-0.164062 -0.84375,-0.609375 0,-0.01172 0,-0.925781 1.265625,-0.925781 0.117188,0 0.550781,0 0.820313,0.28125 z m 4.429687,-0.05859 h 0.960938 c 0.199218,0 0.398437,0 0.398437,-0.351562 0,-0.210938 -0.199219,-0.210938 -0.363281,-0.210938 h -0.855469 c 0.117188,-0.515625 0.164063,-0.667969 0.234375,-0.9375 0.08203,-0.316406 0.210938,-0.84375 0.210938,-0.9375 0,-0.269531 -0.199219,-0.503906 -0.539063,-0.503906 -0.152344,0 -0.609375,0.07031 -0.75,0.632812 l -0.433594,1.746094 h -0.960937 c -0.222656,0 -0.421875,0 -0.421875,0.351563 0,0.210937 0.199219,0.210937 0.375,0.210937 h 0.867187 l -0.832031,3.339844 c -0.05859,0.1875 -0.05859,0.269531 -0.05859,0.339844 0,0.75 0.691407,1.160156 1.40625,1.160156 1.371094,0 2.15625,-1.664063 2.15625,-1.863281 0,-0.164063 -0.152343,-0.164063 -0.328125,-0.164063 -0.269531,0 -0.28125,0.01172 -0.375,0.199219 -0.503906,1.183594 -1.089843,1.394531 -1.394531,1.394531 -0.105469,0 -0.257812,-0.01172 -0.257812,-0.363281 0,-0.234375 0.02344,-0.328125 0.08203,-0.515625 z m 5.036133,-3.140625 c 0.01172,-0.05859 0.03516,-0.128906 0.03516,-0.199219 0,-0.222656 -0.222656,-0.210937 -0.386719,-0.199218 l -1.464843,0.07031 c -0.128907,0.01172 -0.375,0.01172 -0.375,0.363281 0,0.210938 0.210937,0.210938 0.328125,0.210938 0.140625,0 0.351562,0.01172 0.492187,0.02344 l -1.710937,6.9375 c -0.04687,0.175782 -0.04687,0.199219 -0.04687,0.257813 0,0.304687 0.222656,0.515625 0.539062,0.515625 0.152344,0 0.597656,-0.05859 0.75,-0.632813 l 0.738281,-2.976562 c 0.08203,-0.328125 0.75,-1.453125 1.839844,-1.453125 0.515625,0 0.515625,0.445312 0.515625,0.679687 0,0.714844 -0.550781,2.179688 -0.761719,2.71875 -0.117187,0.304688 -0.152343,0.421875 -0.152343,0.597657 0,0.667968 0.609375,1.066406 1.253906,1.066406 1.253906,0 1.839844,-1.617188 1.839844,-1.863281 0,-0.164063 -0.164063,-0.164063 -0.339844,-0.164063 -0.222656,0 -0.292969,0 -0.339844,0.152344 -0.09375,0.316406 -0.410156,1.441406 -1.089844,1.441406 -0.07031,0 -0.175781,0 -0.175781,-0.210937 0,-0.246094 0.117188,-0.5625 0.28125,-0.972657 0.164063,-0.433593 0.703125,-1.851562 0.703125,-2.53125 0,-0.984375 -0.703125,-1.347656 -1.652344,-1.347656 -0.609375,0 -1.089843,0.1875 -1.605468,0.609375 z m 10.180664,1.183594 c 0.210937,0 0.421875,0 0.421875,-0.386719 0,-0.210937 -0.210938,-0.210937 -0.386719,-0.210937 h -3.785156 c -0.222656,0 -0.421875,0 -0.421875,0.375 0,0.222656 0.199219,0.222656 0.386719,0.222656 z m -0.480469,2.261719 c 0.04687,-0.1875 0.04687,-0.210938 0.04687,-0.257813 0,-0.269531 -0.199219,-0.503906 -0.539062,-0.503906 -0.199219,0 -0.398438,0.09375 -0.5625,0.257812 -0.375,-0.398437 -0.84375,-0.457031 -1.160157,-0.457031 -2.003906,0 -3.199218,1.980469 -3.199218,3.585938 0,1.417968 1.007812,1.910156 1.910156,1.910156 0.738281,0 1.289062,-0.375 1.582031,-0.609375 0.222656,0.421875 0.761719,0.609375 1.230469,0.609375 0.5625,0 0.855469,-0.410156 1.019531,-0.644531 0.304688,-0.503907 0.46875,-1.171875 0.46875,-1.21875 0,-0.164063 -0.164062,-0.164063 -0.339844,-0.164063 -0.292968,0 -0.304687,0.01172 -0.386718,0.304688 -0.09375,0.398437 -0.304688,1.289062 -0.714844,1.289062 -0.140625,0 -0.222656,-0.09375 -0.222656,-0.363281 0,-0.234375 0.02344,-0.328125 0.07031,-0.515625 z m -2.027344,3.035156 c -0.02344,0.08203 -0.02344,0.117187 -0.03516,0.210937 -0.515625,0.679688 -1.019531,0.855469 -1.394531,0.855469 -0.269531,0 -0.679688,-0.164062 -0.679688,-0.84375 0,-0.644531 0.421875,-2.121094 0.550782,-2.449219 0.410156,-1.160156 1.066406,-1.335937 1.371093,-1.335937 0.421875,0 0.761719,0.257812 0.890625,0.738281 z m 6.457032,-6.480469 c 0.01172,-0.05859 0.03516,-0.128906 0.03516,-0.199219 0,-0.222656 -0.222656,-0.210937 -0.386719,-0.199218 l -1.464844,0.07031 c -0.128906,0.01172 -0.375,0.01172 -0.375,0.363281 0,0.210938 0.210938,0.210938 0.328125,0.210938 0.140625,0 0.351563,0.01172 0.492188,0.02344 l -1.710938,6.9375 c -0.04687,0.175782 -0.04687,0.199219 -0.04687,0.257813 0,0.304687 0.222657,0.515625 0.539063,0.515625 0.152344,0 0.597656,-0.05859 0.75,-0.632813 l 0.738281,-2.976562 c 0.08203,-0.328125 0.75,-1.453125 1.839844,-1.453125 0.515625,0 0.515625,0.445312 0.515625,0.679687 0,0.714844 -0.550781,2.179688 -0.761719,2.71875 -0.117187,0.304688 -0.152344,0.421875 -0.152344,0.597657 0,0.667968 0.609375,1.066406 1.253907,1.066406 1.253906,0 1.839843,-1.617188 1.839843,-1.863281 0,-0.164063 -0.164062,-0.164063 -0.339843,-0.164063 -0.222657,0 -0.292969,0 -0.339844,0.152344 -0.09375,0.316406 -0.410156,1.441406 -1.089844,1.441406 -0.07031,0 -0.175781,0 -0.175781,-0.210937 0,-0.246094 0.117187,-0.5625 0.28125,-0.972657 0.164062,-0.433593 0.703125,-1.851562 0.703125,-2.53125 0,-0.984375 -0.703125,-1.347656 -1.652344,-1.347656 -0.609375,0 -1.089844,0.1875 -1.605469,0.609375 z m -0.02051,9.922852 c 0,-0.410157 -0.292969,-0.703125 -0.726563,-0.703125 -0.492187,0 -1.066406,0.457031 -1.066406,1.054687 0,0.492188 0.375,0.703125 0.726563,0.703125 0.539062,0 1.066406,-0.492187 1.066406,-1.054687 z m 13.022461,-6.723633 c -0.445313,0.199219 -0.445313,0.632812 -0.445313,0.667969 0,0.304687 0.222657,0.492187 0.515625,0.492187 0.304688,0 0.75,-0.234375 0.75,-0.820312 0,-0.65625 -0.667968,-1.054688 -1.617187,-1.054688 -0.9375,0 -1.347656,0.316406 -1.570313,0.503906 -0.386718,0.328125 -0.632812,0.960938 -0.632812,1.335938 0,1.019531 1.03125,1.21875 1.40625,1.289062 0.621094,0.117188 1.253906,0.246094 1.253906,0.796875 0,0.01172 0,1.136719 -1.664062,1.136719 -0.152344,0 -0.714844,0 -1.113282,-0.316406 0.08203,-0.03516 0.585938,-0.269531 0.585938,-0.808594 0,-0.457031 -0.386719,-0.550781 -0.585938,-0.550781 -0.445312,0 -0.855468,0.339844 -0.855468,0.925781 0,0.75 0.773437,1.183594 1.933593,1.183594 0.339844,0 1.101563,-0.01172 1.746094,-0.46875 0.621094,-0.433594 0.855469,-1.195313 0.855469,-1.582031 0,-0.269532 -0.08203,-0.667969 -0.527344,-1.019532 -0.339844,-0.269531 -0.644531,-0.339843 -1.277344,-0.457031 -0.351562,-0.07031 -0.84375,-0.164062 -0.84375,-0.609375 0,-0.01172 0,-0.925781 1.265625,-0.925781 0.117188,0 0.550782,0 0.820313,0.28125 z m 7.886719,0.152344 c 0.04687,-0.175782 0.04687,-0.199219 0.04687,-0.257813 0,-0.375 -0.292969,-0.515625 -0.539063,-0.515625 -0.152344,0 -0.621094,0.07031 -0.761719,0.667969 l -0.832031,3.363281 c -0.04687,0.210938 -0.05859,0.257813 -0.386719,0.597656 -0.175781,0.152344 -0.46875,0.339844 -0.832031,0.339844 -0.597656,0 -0.621094,-0.5625 -0.621094,-0.820312 0,-0.714844 0.410157,-1.78125 0.691407,-2.53125 0.117187,-0.304688 0.175781,-0.445313 0.175781,-0.644532 0,-0.667968 -0.609375,-1.066406 -1.253906,-1.066406 -1.242188,0 -1.828125,1.617188 -1.828125,1.863281 0,0.164063 0.152343,0.164063 0.328125,0.164063 0.222656,0 0.292968,0 0.339843,-0.152344 0.09375,-0.304687 0.410157,-1.441406 1.101563,-1.441406 0.05859,0 0.164062,0 0.164062,0.210937 0,0.246094 -0.140625,0.621094 -0.222656,0.785157 -0.375,1.03125 -0.714844,1.898437 -0.714844,2.566406 0,1.078125 0.785157,1.5 1.769532,1.5 0.339843,0 0.84375,-0.05859 1.429687,-0.609375 0.222656,0.421875 0.761719,0.609375 1.230469,0.609375 0.5625,0 0.855469,-0.410156 1.007812,-0.644531 0.316407,-0.503907 0.46875,-1.171875 0.46875,-1.21875 0,-0.164063 -0.152343,-0.164063 -0.328125,-0.164063 -0.292968,0 -0.304687,0.01172 -0.386718,0.304688 -0.09375,0.398437 -0.316407,1.289062 -0.714844,1.289062 -0.152344,0 -0.234375,-0.09375 -0.234375,-0.363281 0,-0.234375 0.02344,-0.328125 0.07031,-0.515625 z m 4.38867,-3.351563 c 0.0117,-0.05859 0.0352,-0.128906 0.0352,-0.199219 0,-0.222656 -0.22266,-0.210937 -0.38672,-0.199218 l -1.46484,0.07031 c -0.128911,0.01172 -0.375005,0.01172 -0.375005,0.363281 0,0.210938 0.210938,0.210938 0.328125,0.210938 0.14063,0 0.35156,0.01172 0.49219,0.02344 l -1.71094,6.9375 c -0.04687,0.175782 -0.04687,0.199219 -0.04687,0.257813 0,0.304687 0.222656,0.515625 0.539063,0.515625 0.257812,0 0.574218,-0.152344 0.714837,-0.492188 0.0234,-0.07031 0.28125,-1.148437 0.53907,-2.15625 0.35156,0.05859 1.08984,0.246094 1.08984,0.878907 0,0.05859 0,0.117187 -0.0352,0.257812 -0.0234,0.105469 -0.0352,0.164063 -0.0352,0.292969 0,0.714844 0.63281,1.21875 1.41797,1.21875 1.20703,0 1.61718,-1.769531 1.61718,-1.863281 0,-0.164063 -0.15234,-0.164063 -0.32812,-0.164063 -0.29297,0 -0.30469,0.01172 -0.38672,0.316406 -0.17578,0.703125 -0.42188,1.277344 -0.84375,1.277344 -0.10547,0 -0.26953,-0.02344 -0.26953,-0.398437 0,-0.02344 0,-0.246094 0.0937,-0.621094 0.0234,-0.117188 0.0586,-0.246094 0.0586,-0.363281 0,-0.902344 -1.03125,-1.183594 -1.89844,-1.277344 0.4336,-0.316406 0.84375,-0.75 0.86719,-0.761719 0.8086,-0.914062 1.32422,-1.207031 1.78125,-1.207031 0.0352,0 0.17578,0 0.21094,0.140625 -0.49219,0.05859 -0.79688,0.46875 -0.79688,0.855469 0,0.304687 0.22266,0.550781 0.59766,0.550781 0.33984,0 0.86719,-0.246094 0.86719,-1.03125 0,-0.363281 -0.16406,-0.949219 -0.84375,-0.949219 -0.66797,0 -1.25391,0.46875 -2.02735,1.277344 -0.46875,0.503906 -0.67968,0.667969 -0.96093,0.855469 z m 6.36035,0 c 0.0117,-0.05859 0.0352,-0.128906 0.0352,-0.199219 0,-0.222656 -0.22266,-0.210937 -0.38672,-0.199218 l -1.46484,0.07031 c -0.12891,0.01172 -0.375,0.01172 -0.375,0.363281 0,0.210938 0.21094,0.210938 0.32812,0.210938 0.14063,0 0.35157,0.01172 0.49219,0.02344 l -1.71094,6.9375 c -0.0469,0.175782 -0.0469,0.199219 -0.0469,0.257813 0,0.304687 0.22265,0.515625 0.53906,0.515625 0.15234,0 0.59766,-0.05859 0.75,-0.632813 l 0.73828,-2.976562 c 0.082,-0.328125 0.75,-1.453125 1.83985,-1.453125 0.51562,0 0.51562,0.445312 0.51562,0.679687 0,0.714844 -0.55078,2.179688 -0.76172,2.71875 -0.11719,0.304688 -0.15234,0.421875 -0.15234,0.597657 0,0.667968 0.60937,1.066406 1.2539,1.066406 1.25391,0 1.83985,-1.617188 1.83985,-1.863281 0,-0.164063 -0.16406,-0.164063 -0.33985,-0.164063 -0.22265,0 -0.29296,0 -0.33984,0.152344 -0.0937,0.316406 -0.41016,1.441406 -1.08984,1.441406 -0.0703,0 -0.17578,0 -0.17578,-0.210937 0,-0.246094 0.11718,-0.5625 0.28125,-0.972657 0.16406,-0.433593 0.70312,-1.851562 0.70312,-2.53125 0,-0.984375 -0.70312,-1.347656 -1.65234,-1.347656 -0.60938,0 -1.08985,0.1875 -1.60547,0.609375 z m 7.46192,0.164063 c 0,-0.304688 -0.22266,-0.574219 -0.58594,-0.574219 -0.43359,0 -0.84375,0.410156 -0.84375,0.820312 0,0.328125 0.23438,0.574219 0.58594,0.574219 0.44531,0 0.84375,-0.398437 0.84375,-0.820312 z m -2.75391,6.292968 c -0.0703,0.1875 -0.10547,0.28125 -0.10547,0.457032 0,0.667968 0.60938,1.066406 1.25391,1.066406 1.24219,0 1.82813,-1.617188 1.82813,-1.863281 0,-0.164063 -0.15235,-0.164063 -0.33985,-0.164063 -0.22265,0 -0.28125,0 -0.32812,0.152344 -0.0937,0.316406 -0.42188,1.441406 -1.10157,1.441406 -0.0586,0 -0.16406,0 -0.16406,-0.210937 0,-0.152344 0.082,-0.457032 0.0937,-0.480469 l 1.07813,-2.835938 c 0.0703,-0.199218 0.10547,-0.292968 0.10547,-0.46875 0,-0.667968 -0.60938,-1.066406 -1.25391,-1.066406 -1.24219,0 -1.82813,1.617188 -1.82813,1.863281 0,0.164063 0.15235,0.164063 0.32813,0.164063 0.22266,0 0.29297,0 0.33984,-0.152344 0.0937,-0.304687 0.41016,-1.441406 1.10157,-1.441406 0.0586,0 0.16406,0 0.16406,0.210937 0,0.152344 -0.082,0.457032 -0.0937,0.480469 z m 6.20215,-2.085937 c 0.082,-0.339844 0.75,-1.453125 1.83984,-1.453125 0.51563,0 0.51563,0.445312 0.51563,0.679687 0,0.714844 -0.55078,2.179688 -0.76172,2.71875 -0.10547,0.304688 -0.14062,0.421875 -0.14062,0.597657 0,0.667968 0.60937,1.066406 1.2539,1.066406 1.24219,0 1.82813,-1.617188 1.82813,-1.863281 0,-0.164063 -0.16407,-0.164063 -0.33985,-0.164063 -0.22265,0 -0.28125,0 -0.32812,0.152344 -0.10547,0.316406 -0.42188,1.441406 -1.10156,1.441406 -0.0586,0 -0.17579,0 -0.17579,-0.210937 0,-0.246094 0.12891,-0.5625 0.28125,-0.972657 0.16407,-0.433593 0.70313,-1.851562 0.70313,-2.53125 0,-0.984375 -0.70313,-1.347656 -1.65234,-1.347656 -0.2461,0 -1.03125,0 -1.82813,0.820313 -0.23437,-0.679688 -0.94922,-0.820313 -1.33594,-0.820313 -0.5625,0 -0.85547,0.410156 -1.01953,0.644531 -0.30469,0.503907 -0.45703,1.171875 -0.45703,1.21875 0,0.164063 0.15234,0.164063 0.32813,0.164063 0.29296,0 0.30468,-0.01172 0.38671,-0.304688 0.0937,-0.398437 0.30469,-1.289062 0.71485,-1.289062 0.14062,0 0.22265,0.09375 0.22265,0.363281 0,0.234375 -0.0234,0.328125 -0.0703,0.515625 l -0.84375,3.410156 c -0.0469,0.175782 -0.0469,0.199219 -0.0469,0.257813 0,0.375 0.28125,0.515625 0.53906,0.515625 0.082,0 0.59766,-0.02344 0.75,-0.644531 z m 11.23828,0.117187 c 0,-1.230468 -0.85547,-2.003906 -2.27344,-2.003906 -2.36718,0 -3.5625,1.992188 -3.5625,3.492188 0,1.230468 0.85547,2.003906 2.27344,2.003906 2.35547,0 3.5625,-1.980469 3.5625,-3.492188 z m -3.53906,3.058594 c -0.42188,0 -0.99609,-0.199219 -0.99609,-1.042969 0,-0.46875 0.3164,-1.804687 0.60937,-2.4375 0.35156,-0.761718 1.01953,-1.148437 1.62891,-1.148437 0.42187,0 0.99609,0.199219 0.99609,1.042969 0,0.46875 -0.31641,1.804687 -0.60937,2.449218 -0.35157,0.75 -1.01954,1.136719 -1.62891,1.136719 z m 12.48633,-7.546875 c 0.0117,-0.05859 0.0352,-0.128906 0.0352,-0.199219 0,-0.222656 -0.22265,-0.210937 -0.38671,-0.199218 l -1.46485,0.07031 c -0.1289,0.01172 -0.375,0.01172 -0.375,0.363281 0,0.210938 0.21094,0.210938 0.32813,0.210938 0.14062,0 0.35156,0.01172 0.49218,0.02344 l -1.23046,4.96875 c -0.10547,0.421875 -0.10547,0.738282 -0.10547,0.855469 0,1.441406 1.00781,1.886719 1.86328,1.886719 2.05078,0 3.22265,-2.003906 3.22265,-3.585938 0,-1.417968 -1.00781,-1.910156 -1.91015,-1.910156 -0.53906,0 -0.98438,0.210938 -1.17188,0.339844 z m -0.82031,7.546875 c -0.73829,0 -0.73829,-0.773437 -0.73829,-0.9375 0,-0.410156 0.0703,-0.714844 0.26954,-1.453125 0.0937,-0.421875 0.17578,-0.726562 0.25781,-1.089844 0.082,-0.316406 0.082,-0.339843 0.19922,-0.46875 0.3164,-0.386718 0.79687,-0.679687 1.24218,-0.679687 0.28125,0 0.69141,0.164062 0.69141,0.84375 0,0.644531 -0.42187,2.121094 -0.55078,2.449219 -0.43359,1.230468 -1.13672,1.335937 -1.37109,1.335937 z m 7.18066,-7.546875 c 0.0117,-0.05859 0.0352,-0.128906 0.0352,-0.199219 0,-0.222656 -0.22266,-0.210937 -0.38672,-0.199218 l -1.46485,0.07031 c -0.1289,0.01172 -0.375,0.01172 -0.375,0.363281 0,0.210938 0.21094,0.210938 0.32813,0.210938 0.14062,0 0.35156,0.01172 0.49219,0.02344 l -1.71094,6.9375 c -0.0469,0.175782 -0.0469,0.199219 -0.0469,0.257813 0,0.304687 0.22266,0.515625 0.53907,0.515625 0.15234,0 0.59765,-0.05859 0.75,-0.632813 l 0.73828,-2.976562 c 0.082,-0.328125 0.75,-1.453125 1.83984,-1.453125 0.51563,0 0.51563,0.445312 0.51563,0.679687 0,0.714844 -0.55079,2.179688 -0.76172,2.71875 -0.11719,0.304688 -0.15235,0.421875 -0.15235,0.597657 0,0.667968 0.60938,1.066406 1.25391,1.066406 1.25391,0 1.83984,-1.617188 1.83984,-1.863281 0,-0.164063 -0.16406,-0.164063 -0.33984,-0.164063 -0.22266,0 -0.29297,0 -0.33984,0.152344 -0.0937,0.316406 -0.41016,1.441406 -1.08985,1.441406 -0.0703,0 -0.17578,0 -0.17578,-0.210937 0,-0.246094 0.11719,-0.5625 0.28125,-0.972657 0.16406,-0.433593 0.70313,-1.851562 0.70313,-2.53125 0,-0.984375 -0.70313,-1.347656 -1.65235,-1.347656 -0.60937,0 -1.08984,0.1875 -1.60547,0.609375 z m 9.70019,3.445313 c 0.0469,-0.1875 0.0469,-0.210938 0.0469,-0.257813 0,-0.269531 -0.19922,-0.503906 -0.53906,-0.503906 -0.19922,0 -0.39844,0.09375 -0.5625,0.257812 -0.375,-0.398437 -0.84375,-0.457031 -1.16016,-0.457031 -2.00391,0 -3.19922,1.980469 -3.19922,3.585938 0,1.417968 1.00781,1.910156 1.91016,1.910156 0.73828,0 1.28906,-0.375 1.58203,-0.609375 0.22266,0.421875 0.76172,0.609375 1.23047,0.609375 0.5625,0 0.85547,-0.410156 1.01953,-0.644531 0.30469,-0.503907 0.46875,-1.171875 0.46875,-1.21875 0,-0.164063 -0.16406,-0.164063 -0.33984,-0.164063 -0.29297,0 -0.30469,0.01172 -0.38672,0.304688 -0.0937,0.398437 -0.30469,1.289062 -0.71485,1.289062 -0.14062,0 -0.22265,-0.09375 -0.22265,-0.363281 0,-0.234375 0.0234,-0.328125 0.0703,-0.515625 z m -2.02734,3.035156 c -0.0234,0.08203 -0.0234,0.117187 -0.0352,0.210937 -0.51562,0.679688 -1.01953,0.855469 -1.39453,0.855469 -0.26953,0 -0.67968,-0.164062 -0.67968,-0.84375 0,-0.644531 0.42187,-2.121094 0.55078,-2.449219 0.41015,-1.160156 1.0664,-1.335937 1.37109,-1.335937 0.42188,0 0.76172,0.257812 0.89063,0.738281 z m 9.04688,-2.953125 c 0,-0.890625 -0.53907,-1.054688 -0.76172,-1.054688 -0.42188,0 -0.86719,0.433594 -0.86719,0.855469 0,0.292969 0.17578,0.410156 0.29297,0.503906 0.23437,0.164063 0.46875,0.421875 0.46875,0.785157 0,0.04687 -0.50391,2.929687 -1.83985,2.929687 -0.67968,0 -0.77343,-0.515625 -0.77343,-0.890625 0,-0.667969 0.38672,-1.6875 0.67968,-2.472656 0.12891,-0.304688 0.17579,-0.433594 0.17579,-0.632813 0,-0.667968 -0.60938,-1.066406 -1.25391,-1.066406 -1.24219,0 -1.82813,1.617188 -1.82813,1.863281 0,0.164063 0.15235,0.164063 0.32813,0.164063 0.22266,0 0.29297,0 0.33984,-0.152344 0.0937,-0.304687 0.41016,-1.441406 1.10157,-1.441406 0.0586,0 0.16406,0 0.16406,0.210937 0,0.246094 -0.14063,0.621094 -0.22266,0.785157 -0.44531,1.207031 -0.70312,1.910156 -0.70312,2.519531 0,1.347656 1.16015,1.546875 1.89843,1.546875 2.13282,0 2.80079,-3.832031 2.80079,-4.453125 z m 6.40722,-0.08203 c 0.0469,-0.1875 0.0469,-0.210938 0.0469,-0.257813 0,-0.269531 -0.19922,-0.503906 -0.53906,-0.503906 -0.19922,0 -0.39844,0.09375 -0.5625,0.257812 -0.375,-0.398437 -0.84375,-0.457031 -1.16016,-0.457031 -2.00391,0 -3.19922,1.980469 -3.19922,3.585938 0,1.417968 1.00781,1.910156 1.91016,1.910156 0.73828,0 1.28906,-0.375 1.58203,-0.609375 0.22265,0.421875 0.76172,0.609375 1.23047,0.609375 0.5625,0 0.85547,-0.410156 1.01953,-0.644531 0.30469,-0.503907 0.46875,-1.171875 0.46875,-1.21875 0,-0.164063 -0.16406,-0.164063 -0.33985,-0.164063 -0.29296,0 -0.30468,0.01172 -0.38671,0.304688 -0.0937,0.398437 -0.30469,1.289062 -0.71485,1.289062 -0.14062,0 -0.22265,-0.09375 -0.22265,-0.363281 0,-0.234375 0.0234,-0.328125 0.0703,-0.515625 z m -2.02734,3.035156 c -0.0234,0.08203 -0.0234,0.117187 -0.0352,0.210937 -0.51562,0.679688 -1.01953,0.855469 -1.39453,0.855469 -0.26953,0 -0.67969,-0.164062 -0.67969,-0.84375 0,-0.644531 0.42188,-2.121094 0.55079,-2.449219 0.41015,-1.160156 1.0664,-1.335937 1.37109,-1.335937 0.42187,0 0.76172,0.257812 0.89062,0.738281 z m 6.05859,-2.109375 c 0.082,-0.339844 0.75,-1.453125 1.83985,-1.453125 0.51562,0 0.51562,0.445312 0.51562,0.679687 0,0.714844 -0.55078,2.179688 -0.76172,2.71875 -0.10547,0.304688 -0.14062,0.421875 -0.14062,0.597657 0,0.667968 0.60937,1.066406 1.2539,1.066406 1.24219,0 1.82813,-1.617188 1.82813,-1.863281 0,-0.164063 -0.16406,-0.164063 -0.33984,-0.164063 -0.22266,0 -0.28125,0 -0.32813,0.152344 -0.10547,0.316406 -0.42187,1.441406 -1.10156,1.441406 -0.0586,0 -0.17578,0 -0.17578,-0.210937 0,-0.246094 0.1289,-0.5625 0.28125,-0.972657 0.16406,-0.433593 0.70312,-1.851562 0.70312,-2.53125 0,-0.984375 -0.70312,-1.347656 -1.65234,-1.347656 -0.2461,0 -1.03125,0 -1.82813,0.820313 -0.23437,-0.679688 -0.94922,-0.820313 -1.33593,-0.820313 -0.5625,0 -0.85547,0.410156 -1.01954,0.644531 -0.30468,0.503907 -0.45703,1.171875 -0.45703,1.21875 0,0.164063 0.15235,0.164063 0.32813,0.164063 0.29297,0 0.30469,-0.01172 0.38672,-0.304688 0.0937,-0.398437 0.30468,-1.289062 0.71484,-1.289062 0.14063,0 0.22266,0.09375 0.22266,0.363281 0,0.234375 -0.0234,0.328125 -0.0703,0.515625 l -0.84375,3.410156 c -0.0469,0.175782 -0.0469,0.199219 -0.0469,0.257813 0,0.375 0.28125,0.515625 0.53906,0.515625 0.082,0 0.59766,-0.02344 0.75,-0.644531 z m 7.73438,-1.230469 h 0.96094 c 0.19921,0 0.39843,0 0.39843,-0.351562 0,-0.210938 -0.19922,-0.210938 -0.36328,-0.210938 h -0.85547 c 0.11719,-0.515625 0.16407,-0.667969 0.23438,-0.9375 0.082,-0.316406 0.21094,-0.84375 0.21094,-0.9375 0,-0.269531 -0.19922,-0.503906 -0.53907,-0.503906 -0.15234,0 -0.60937,0.07031 -0.75,0.632812 l -0.43359,1.746094 h -0.96094 c -0.22265,0 -0.42187,0 -0.42187,0.351563 0,0.210937 0.19922,0.210937 0.375,0.210937 h 0.86718 l -0.83203,3.339844 c -0.0586,0.1875 -0.0586,0.269531 -0.0586,0.339844 0,0.75 0.69141,1.160156 1.40625,1.160156 1.37109,0 2.15625,-1.664063 2.15625,-1.863281 0,-0.164063 -0.15234,-0.164063 -0.32813,-0.164063 -0.26953,0 -0.28125,0.01172 -0.375,0.199219 -0.5039,1.183594 -1.08984,1.394531 -1.39453,1.394531 -0.10547,0 -0.25781,-0.01172 -0.25781,-0.363281 0,-0.234375 0.0234,-0.328125 0.082,-0.515625 z m 8.05957,0.210938 c 0.0469,-0.175782 0.0469,-0.199219 0.0469,-0.257813 0,-0.375 -0.29297,-0.515625 -0.53906,-0.515625 -0.15234,0 -0.62109,0.07031 -0.76172,0.667969 l -0.83203,3.363281 c -0.0469,0.210938 -0.0586,0.257813 -0.38672,0.597656 -0.17578,0.152344 -0.46875,0.339844 -0.83203,0.339844 -0.59766,0 -0.62109,-0.5625 -0.62109,-0.820312 0,-0.714844 0.41015,-1.78125 0.6914,-2.53125 0.11719,-0.304688 0.17578,-0.445313 0.17578,-0.644532 0,-0.667968 -0.60937,-1.066406 -1.2539,-1.066406 -1.24219,0 -1.82813,1.617188 -1.82813,1.863281 0,0.164063 0.15235,0.164063 0.32813,0.164063 0.22265,0 0.29297,0 0.33984,-0.152344 0.0937,-0.304687 0.41016,-1.441406 1.10156,-1.441406 0.0586,0 0.16407,0 0.16407,0.210937 0,0.246094 -0.14063,0.621094 -0.22266,0.785157 -0.375,1.03125 -0.71484,1.898437 -0.71484,2.566406 0,1.078125 0.78515,1.5 1.76953,1.5 0.33984,0 0.84375,-0.05859 1.42969,-0.609375 0.22265,0.421875 0.76171,0.609375 1.23046,0.609375 0.5625,0 0.85547,-0.410156 1.00782,-0.644531 0.3164,-0.503907 0.46875,-1.171875 0.46875,-1.21875 0,-0.164063 -0.15235,-0.164063 -0.32813,-0.164063 -0.29297,0 -0.30469,0.01172 -0.38672,0.304688 -0.0937,0.398437 -0.3164,1.289062 -0.71484,1.289062 -0.15234,0 -0.23438,-0.09375 -0.23438,-0.363281 0,-0.234375 0.0234,-0.328125 0.0703,-0.515625 z m 0,0"
         style="fill:#000000;fill-opacity:1;fill-rule:nonzero;stroke:none" />
      <path
         id="path4"
         d="m 198.53702,20.46418 c 0,-0.175782 0,-0.539063 -0.36329,-0.539063 -0.36328,0 -0.36328,0.351563 -0.36328,0.539063 v 10.875 c 0,0.175781 0,0.539062 0.35157,0.539062 0.375,0 0.375,-0.351562 0.375,-0.539062 z m 3.81445,0 c 0,-0.175782 0,-0.539063 -0.36328,-0.539063 -0.36328,0 -0.36328,0.351563 -0.36328,0.539063 v 10.875 c 0,0.175781 0,0.539062 0.35156,0.539062 0.375,0 0.375,-0.351562 0.375,-0.539062 z m 0,0"
         style="fill:#000000;fill-opacity:1;fill-rule:nonzero;stroke:none" />
    </g>
  </g>
</svg>
